<mxfile host="Electron" modified="2024-03-02T10:37:30.139Z" agent="Mozilla/5.0 (Windows NT 10.0; Win64; x64) AppleWebKit/537.36 (KHTML, like Gecko) draw.io/23.0.2 Chrome/120.0.6099.109 Electron/28.1.0 Safari/537.36" etag="DXF0Wni-0dC9fgZeVPT8" version="23.0.2" type="device">
  <diagram name="Page-1" id="lc784LR7BntIb-gF8uRb">
    <mxGraphModel dx="1450" dy="1021" grid="1" gridSize="10" guides="1" tooltips="1" connect="1" arrows="1" fold="1" page="0" pageScale="1" pageWidth="850" pageHeight="1100" math="0" shadow="0">
      <root>
        <mxCell id="0" />
        <mxCell id="1" parent="0" />
        <mxCell id="iVJDmbqdBUfphAulUDFP-1" value="" style="rounded=0;whiteSpace=wrap;html=1;dashed=1;strokeColor=#666666;" parent="1" vertex="1">
          <mxGeometry x="-190" y="80" width="110" height="87.27" as="geometry" />
        </mxCell>
        <mxCell id="PDKZWIRo8kdzS-4Apmol-31" value="" style="rounded=0;whiteSpace=wrap;html=1;dashed=1;strokeColor=#6666FF;" parent="1" vertex="1">
          <mxGeometry x="103.35" y="57.96" width="686.65" height="452.04" as="geometry" />
        </mxCell>
        <mxCell id="PDKZWIRo8kdzS-4Apmol-25" value="" style="rounded=0;whiteSpace=wrap;html=1;dashed=1;" parent="1" vertex="1">
          <mxGeometry x="480" y="250.94" width="260" height="220" as="geometry" />
        </mxCell>
        <mxCell id="PDKZWIRo8kdzS-4Apmol-2" value="" style="rounded=0;whiteSpace=wrap;html=1;dashed=1;strokeColor=#FFB366;" parent="1" vertex="1">
          <mxGeometry x="140" y="242.73" width="110" height="97.27" as="geometry" />
        </mxCell>
        <mxCell id="PDKZWIRo8kdzS-4Apmol-24" style="edgeStyle=orthogonalEdgeStyle;rounded=0;orthogonalLoop=1;jettySize=auto;html=1;strokeWidth=2;" parent="1" source="PDKZWIRo8kdzS-4Apmol-1" target="PDKZWIRo8kdzS-4Apmol-10" edge="1">
          <mxGeometry relative="1" as="geometry">
            <Array as="points">
              <mxPoint x="370" y="236" />
              <mxPoint x="370" y="369" />
            </Array>
          </mxGeometry>
        </mxCell>
        <mxCell id="iVJDmbqdBUfphAulUDFP-2" style="edgeStyle=orthogonalEdgeStyle;rounded=0;orthogonalLoop=1;jettySize=auto;html=1;strokeWidth=2;" parent="1" source="PDKZWIRo8kdzS-4Apmol-1" target="PDKZWIRo8kdzS-4Apmol-9" edge="1">
          <mxGeometry relative="1" as="geometry">
            <Array as="points">
              <mxPoint x="370" y="235" />
              <mxPoint x="370" y="130" />
            </Array>
          </mxGeometry>
        </mxCell>
        <mxCell id="PDKZWIRo8kdzS-4Apmol-1" value="" style="outlineConnect=0;dashed=0;verticalLabelPosition=bottom;verticalAlign=top;align=center;html=1;shape=mxgraph.aws3.ec2;fillColor=#F58534;gradientColor=none;" parent="1" vertex="1">
          <mxGeometry x="220" y="200" width="60" height="70" as="geometry" />
        </mxCell>
        <mxCell id="PDKZWIRo8kdzS-4Apmol-3" value="" style="shape=image;verticalLabelPosition=bottom;labelBackgroundColor=default;verticalAlign=top;aspect=fixed;imageAspect=0;image=data:image/svg+xml,PHN2ZyB4bWxucz0iaHR0cDovL3d3dy53My5vcmcvMjAwMC9zdmciIHdpZHRoPSIyNTUuNjE0Njg1MDU4NTkzNzUiIHZpZXdCb3g9IjAuMjYzODg3NDA1Mzk1NTA3OCAwLjMwMTgwMzU4ODg2NzE4NzUgMjU1LjYxNDY4NTA1ODU5Mzc1IDMxMy44MzYxODE2NDA2MjUiIHByZXNlcnZlQXNwZWN0UmF0aW89InhNaWRZTWlkIiBoZWlnaHQ9IjMxMy44MzYxODE2NDA2MjUiPjxnIHRyYW5zZm9ybT0idHJhbnNsYXRlKDAgMjgxLjg1OTk4NSkiIGZpbGw9IiMxYTE5MTgiPjxwYXRoIGQ9Im02Ny41MTY4MzQgMzIuMDAzNTI0OGMtLjU0MTUyMzUgMC0xLjEyNjE2NjktLjEzNjg1MDktMS41MzIxMTUzLS42ODU4MzIybC0xNy4zODM1MjY2LTIyLjg2MTIwNjQ2djIzLjMxODY5MDg2aC0zLjk2NDMwOTZ2LTI4LjcxNDI0NjM1YzAtMS4xNDI1Mjc5Ljk0NTkxODEtMi4wNTcxMDIzNiAyLjAyNzc5OTctMi4wNTcxMDIzNi42Mjk3MDU3IDAgMS4xNzA4NDA3LjE4MjU5OTM4IDEuNTc0ODQ2OC43MzE1ODA2OWwxNy4zMzk2Mjk3IDIyLjgxNTg1MjMydi0yMy4yMjc1ODgzaDMuOTYzOTIxMXYyOC42NjgxMDM1YzAgMS4xODkwNjUxLS45NDU5MTggMi4wMTE3NDgzLTIuMDI2MjQ1OCAyLjAxMTc0ODMiLz48cGF0aCBkPSJtMTAwLjMwNjI3NyAzMi4yNzc5NzZjLTMuOTYyNzU1MyAwLTguMTA2OTI1My0uODIzNDcxOS0xMS45ODAzMzM0LTIuMjg1ODQ0NmwuOTQ2MzA2NS0zLjI5MjcwNDZjMy41NTc5NzI3IDEuMTQzMzE2NiA3LjQzMDk5MjQgMS45NjYzOTQyIDExLjAzNDAyNjkgMS45NjYzOTQyIDQuOTk5NTc2IDAgNy42MTE2My0xLjc4MzQwMDUgNy42MTE2My00LjI5NzU5MjkgMC0yLjI4NjYzMzMtMi4wMjc0MTEtMy40Mjk1NTU2LTkuMDA4MTY5OC02LjcyMTg2NTktNi45ODA3NTg3LTMuMjkxOTE1OS05LjcyNzIyMzEtNS4zOTQ3NjY3LTkuNzI3MjIzMS05LjUxMDU0ODk4IDAtNS4xNjU2MzAxMiAzLjk2Mjc1NTctNy4yNzAwNTg0NiAxMS40Mzg0MjE5LTcuMjcwMDU4NDYgMy4xMDgxMjcgMCA3Ljg4MTYxNS42NDA4NzI1NyAxMC42MzAwMjEgMS40NjM5NTAxNWwtLjYzMDg3MSAzLjM4MzAxODQxYy0zLjAxODM5MS0uNzMxMTg2My02LjgwMDUxLTEuMjM0MDI0NzgtOS45MDg2MzctMS4yMzQwMjQ3OC01LjI2ODM5NDcgMC03LjQzMDYwNDEgMS4wMDUyODI1Ny03LjQzMDYwNDEgMy41MjA2NTgxMiAwIDIuNDY4NDQzOTQgMS41NzU2MjM3IDMuNTIwMjYzNzQgOC45NjE5NDIxIDYuOTQ5ODE5MzQgNy43OTE4NzkgMy42MTIxNTUgOS43NzM0NTEgNS40NDEzMDQgOS43NzM0NTEgOS4xODk5MTU1IDAgNS40NDE2OTgzLTUuMTM1MTUgOC4xMzg4ODQ1LTExLjcwOTk2MSA4LjEzODg4NDUiLz48cGF0aCBkPSJtMTMwLjc5ODEzMSAxLjMyMzY3M2g0LjA5ODMzdjMwLjQ1MTEwOTZoLTQuMDk4MzN6Ii8+PHBhdGggZD0ibTE2OS43NTc4MzQgMTcuOTY2OTE2OGgtMTAuMTc5Nzg3djEwLjMzNDAyMDloMTAuMTc5Nzg3YzMuNDY3NDYgMCA1LjU4NDIxOS0yLjE5NTEzNjQgNS41ODQyMTktNS4yNTkwOTg5IDAtMi44ODA1NzQzLTIuMjA2NDk1LTUuMDc0OTIyLTUuNTg0MjE5LTUuMDc0OTIybS0xLjk4MjczNy0xMy4xNjg0NTI0M2gtOC4xOTcwNXY5LjczOTI5MTIzaDguMTk3MDVjMy4yODgzNzYgMCA1LjY3NTEyLTIuMTAzNjM5NiA1LjY3NTEyLTUuMDI5NTY3OTkgMC0yLjg4MDU3NDMyLTIuMDcyMDg1LTQuNzA5NzIzMjQtNS42NzUxMi00LjcwOTcyMzI0bTIuMDI3NDExIDI2Ljk3NjU5NDMzaC0xMi4yNDk5M2MtMS4xNzE2MTggMC0yLjA3MjQ3NC0uOTE0OTY4OS0yLjA3MjQ3NC0yLjA1NzQ5Njh2LTI2LjMzNjExNjA5YzAtMS4wOTc5NjI2MS45MDA4NTYtMi4wNTc0OTY3NCAyLjA3MjQ3NC0yLjA1NzQ5Njc0aDEwLjEzMzE3MWM2LjIxNTA5IDAgOS45MDc4NjEgMy4wNjMxNzM3IDkuOTA3ODYxIDcuODY0MzkzODMgMCAyLjYwNTY4OTMtMS41MzEzMzkgNS4wMjkxNzM2LTMuODczNzk3IDYuNDQ2NTg2NSAzLjQ2OTQwMiAxLjA1MTgxOTggNS44MDk5MTggMy45MzE5OTk3IDUuODA5OTE4IDcuNDA2OTA5NCAwIDQuODQ2NTc0Mi00LjAwNzQyOSA4LjczMzIxOTktOS43MjcyMjMgOC43MzMyMTk5Ii8+PHBhdGggZD0ibTE5OS4yMTIyNDYgMzEuNzc1MDk4MWMtMS4xMjQyMjQgMC0yLjAyNTQ2OC0uOTYwMzIyOS0yLjAyNTQ2OC0yLjA1NzQ5Njh2LTI4LjM5MzYxMjc5aDQuMDk3NTUzdjI2Ljc0Nzg1MjA5aDE2LjMwMzk3NnYzLjcwMzI1NzV6Ii8+PHBhdGggZD0ibTI0NS41MjYxODEgMzIuMjc3OTc2Yy04LjM3NzI5OCAwLTEzLjQyMTU0Ny0zLjEwODkyMjEtMTMuNDIxNTQ3LTkuMzcyOTA5MyAwLTIuOTcyMDcxMiAxLjY2NjkxMy01LjgwNjg5NyA0LjkwOTgzOS03LjEzMjgxMzEtMi42MTI0NDMtMS42NDYxNTUxLTMuOTYzMTQ0LTMuOTc4MTQyNS0zLjk2MzE0NC02LjUzODQ3Nzc3IDAtNS42NjkyNTczNyA0LjM2OTg2OS04LjM2ODAyMTA3IDEyLjU2NTc1NC04LjM2ODAyMTA3IDIuNzQ3NjMgMCA2LjYyMDI2MS4zMjA2MzM0OCA5Ljg2MzU3NSAxLjA1MjYwODU1bC0uNDUxMDExIDMuMzgzMDE4NDJjLTMuNDIyMDA5LS41NDg5ODEzMS02LjYyMTAzOC0uODY4MDM3MjUtOS43MjgzODgtLjg2ODAzNzI1LTUuMzE0NjIyIDAtOC4xNTIzNzYgMS40NjIzNzI2MS04LjE1MjM3NiA0Ljk4MzQyNTEyIDAgMi43ODk0NzE4IDIuNjEyODMxIDQuOTgzODE5NSA2LjA4MTQ1NiA0Ljk4MzgxOTVoNy4wMjUwNDRjLjk5MDk4MSAwIDEuNzU2MjYxLjc3NzMyOTEgMS43NTYyNjEgMS43MzcyNTc3IDAgMS4wMDU2NzY5LS43NjUyOCAxLjc4MzAwNjEtMS43NTYyNjEgMS43ODMwMDYxaC03LjU2NTAxM2MtMy45NjQ2OTggMC02LjQ4NTQ2MyAxLjk2NTYwNTQtNi40ODU0NjMgNC45ODQyMTM4IDAgNC40MzQ4MzgyIDQuMDk4MzMxIDUuNzYwNzU0MyA5LjIzMjMxNSA1Ljc2MDc1NDMgMi43OTI2OTIgMCA2LjU3NDQyMi0uMzY0ODA0NCA5LjYzNjcxMS0xLjA5Njc3OTVsLjU4Njk3NCAzLjMzNzI3Yy0yLjkyODI2Ny44MjM0NzItNi43NTcwMDIgMS4zNzE2NjQ1LTEwLjEzNDcyNiAxLjM3MTY2NDUiLz48cGF0aCBkPSJtMTQuMTM3OTk4MiA3LjAzNDY5NTU1IDcuMTc3NzExNyAxNy45ODQyNjQ3NS0xMC44NDA1NzA2LTguNjY5MzI5OHptMTIuNzUxNDQxNiAyMi4xMjc2NTM4NS0xMS4wMzk4NTQ0LTI2Ljk3NDYyMjQyYy0uMzE1MDQ3LS43NzczMjkxMy0uOTQ1OTE4LTEuMTg5MDY1MTEtMS43MTE1ODcyLTEuMTg5MDY1MTFzLTEuNDQxMjE0LjQxMTczNTk4LTEuNzU2MjYxIDEuMTg5MDY1MTFsLTEyLjExNzg1MTMxIDI5LjU4NzQxMDUyaDQuMTQ0NTU4NDJsNC43OTc1NzIwOC0xMi4xOTgyNjk5IDE0LjMxNDI0NTgxIDExLjc0MDc4NTVjLjU3NTcwODcuNDcyMDc2Ni45OTA5ODAzLjY4NTgzMjMgMS41MzIxMTUzLjY4NTgzMjMgMS4wODAzMjc4IDAgMi4wMjYyNDU5LS44MjI2ODMyIDIuMDI2MjQ1OS0yLjAxMTM1NCAwLS4xOTI4NTMzLS4wNjc5ODE4LS40OTk2ODM0LS4xODkxODM2LS44Mjk3ODJ6Ii8+PC9nPjxwYXRoIGZpbGw9IiMxYTE5MTgiIGQ9Im0yNTUuODc4NTY2IDEyNy44NjgwMjhjMCA3MC40NTUxNDMtNTcuMTEwMDcyIDEyNy41NjQ3MTItMTI3LjU2NjIxOSAxMjcuNTY0NzEyLTcwLjQ1MDEyMDUgMC0xMjcuNTY2MjE5NjctNTcuMTA5NTY5LTEyNy41NjYyMTk2Ny0xMjcuNTY0NzEyIDAtNzAuNDUwMTIwMyA1Ny4xMTYwOTkxNy0xMjcuNTY2MjE5NDYgMTI3LjU2NjIxOTY3LTEyNy41NjYyMTk0NiA3MC40NTYxNDcgMCAxMjcuNTY2MjE5IDU3LjExNjA5OTE2IDEyNy41NjYyMTkgMTI3LjU2NjIxOTQ2Ii8+PHBhdGggZmlsbD0iI2ZmZiIgZD0ibTEzMC40NTk4NjMgNzguMjI4ODg1IDMzLjAxMTU5NyA4MS40NzYyNTMtNDkuODYzNDUzLTM5LjI3NzgwM3ptNTguNjQ0NDc5IDEwMC4yNDUyMzgtNTAuNzc4NTcyLTEyMi4yMDIwNzMyYy0xLjQ0OTUyNC0zLjUyNDM2NDQtNC4zNDgwNzItNS4zODkyNTg5LTcuODY1OTA3LTUuMzg5MjU4OS0zLjUyNDM2NCAwLTYuNjMzODYxIDEuODY0ODk0NS04LjA4MzM4NiA1LjM4OTI1ODlsLTU1LjczMjg3MjUgMTM0LjA0MDM2MTJoMTkuMDY1MzE5NWwyMi4wNjIzMS01NS4yNjUyNjggNjUuODM4ODYzIDUzLjE4OTkyN2MyLjY0NzkxOSAyLjE0MTEzOCA0LjU1ODUyIDMuMTA5NDk2IDcuMDQyMiAzLjEwOTQ5NiA0Ljk3Mzg4OSAwIDkuMzIxNDU5LTMuNzI4Nzg0IDkuMzIxNDU5LTkuMTExMDExIDAtLjg3NTk0My0uMzA5MzkzLTIuMjY2MjAxLS44Njk0MTQtMy43NjE0MzJ6Ii8+PC9zdmc+;" parent="1" vertex="1">
          <mxGeometry x="-178.90999999999997" y="106.13999999999999" width="38.91" height="47.73" as="geometry" />
        </mxCell>
        <mxCell id="PDKZWIRo8kdzS-4Apmol-7" value="" style="shape=image;verticalLabelPosition=bottom;labelBackgroundColor=default;verticalAlign=top;aspect=fixed;imageAspect=0;image=data:image/svg+xml,PHN2ZyB4bWxucz0iaHR0cDovL3d3dy53My5vcmcvMjAwMC9zdmciIHdpZHRoPSIyNTQuMzEzMTcxMzg2NzE4NzUiIHZpZXdCb3g9IjAuODkzMDI0NDQ0NTgwMDc4MSAwLjI5NTk4NTY5ODY5OTk1MTE3IDI1NC4zMTMxNzEzODY3MTg3NSA0MTYuNjQ2NjY3NDgwNDY4NzUiIHByZXNlcnZlQXNwZWN0UmF0aW89InhNaWRZTWlkIiBoZWlnaHQ9IjQxNi42NDY2Njc0ODA0Njg3NSI+PHBhdGggZmlsbD0iI2QzMzgzMyIgZD0ibTI1MC43NDEwODUgMTY5LjI3NzUxOWMwIDY5LjQ1NzM2NS01NS4wNjk3NjcgMTI1LjgxNzA1NS0xMjMuMDM4NzU5IDEyNS44MTcwNTUtNjcuOTY4OTkyNyAwLTEyMy4wMzg3NjAxMS01Ni4zNTk2OS0xMjMuMDM4NzYwMTEtMTI1LjgxNzA1NSAwLTY5LjQ1NzM2NCA1NS4wNjk3Njc0MS0xMjUuODE3MDUzOSAxMjMuMDM4NzYwMTEtMTI1LjgxNzA1MzkgNjcuOTY4OTkyIDAgMTIzLjAzODc1OSA1Ni4zNTk2ODk5IDEyMy4wMzg3NTkgMTI1LjgxNzA1MzkiLz48cGF0aCBmaWxsPSIjZWYzZDNhIiBkPSJtOS43MjQwMzEwMSAyMDAuNDM0MTA5cy04LjkzMDIzMjU2LTEzMS4xNzUxOTQzIDExMi4wMjQ4MDU5OS0xMzQuOTQ1NzM2OWwtOC40MzQxMDgtMTQuMDg5OTIyNS02NS41ODc1OTcyIDIyLjAyNzkwNy0xOC43NTM0ODg0IDIxLjUzMTc4MjktMTYuMzcyMDkzIDMxLjM1NTAzODUtOS4zMjcxMzE4IDM2LjUxNDcyOSAyLjc3ODI5NDU4IDI0LjQwOTMwMiIvPjxwYXRoIGZpbGw9IiMyMzFmMjAiIGQ9Im00My40NjA0NjUxIDgzLjQ0ODA2MmMtMjEuNTMxNzgyOSAyMi4xMjcxMzItMzQuOTI3MTMxNzcgNTIuNTg5MTQ3LTM0LjkyNzEzMTc3IDg2LjMyNTU4MSAwIDMzLjczNjQzNSAxMy4zOTUzNDg4NyA2NC4xOTg0NSAzNC45MjcxMzE3NyA4Ni4zMjU1ODIgMjEuNjMxMDA3OCAyMi4xMjcxMzIgNTEuMjk5MjI0OCAzNS43MjA5MyA4NC4yNDE4NjA5IDM1LjcyMDkzIDMyLjk0MjYzNSAwIDYyLjYxMDg1Mi0xMy41OTM3OTggODQuMjQxODYtMzUuNzIwOTMgMjEuNTMxNzgzLTIyLjEyNzEzMiAzNC45MjcxMzItNTIuNTg5MTQ3IDM0LjkyNzEzMi04Ni4zMjU1ODIgMC0zMy43MzY0MzQtMTMuMzk1MzQ5LTY0LjE5ODQ0OS0zNC45MjcxMzItODYuMzI1NTgxLTIxLjYzMTAwOC0yMi4wMjc5MDctNTEuMjk5MjI1LTM1LjcyMDkzMDItODQuMjQxODYtMzUuNzIwOTMwMi0zMi44NDM0MTEzIDAtNjIuNjEwODUzMSAxMy41OTM3OTg0LTg0LjI0MTg2MDkgMzUuNzIwOTMwMnptLTUuNDU3MzY0MyAxNzcuOTEwMDc4Yy0yMi45MjA5MzAzLTIzLjQxNzA1NS0zNy4xMTAwNzc1NC01NS44NjM1NjYtMzcuMTEwMDc3NTQtOTEuNTg0NDk3IDAtMzUuNzIwOTMgMTQuMTg5MTQ3MjQtNjguMTY3NDQxIDM3LjExMDA3NzU0LTkxLjY4MzcyMDUgMjIuOTIwOTMwMi0yMy40MTcwNTQzIDU0LjY3Mjg2ODItMzguMDAzMTAwOCA4OS42OTkyMjUyLTM4LjAwMzEwMDggMzUuMDI2MzU2IDAgNjYuNzc4Mjk0IDE0LjU4NjA0NjUgODkuNjk5MjI0IDM4LjAwMzEwMDggMjIuOTIwOTMxIDIzLjQxNzA1NDUgMzcuMTEwMDc4IDU1Ljg2MzU2NTUgMzcuMTEwMDc4IDkxLjY4MzcyMDUgMCAzNS43MjA5MzEtMTQuMTg5MTQ3IDY4LjE2NzQ0Mi0zNy4xMTAwNzggOTEuNTg0NDk3LTIyLjkyMDkzIDIzLjUxNjI3OS01NC42NzI4NjggMzguMDAzMS04OS42OTkyMjQgMzguMDAzMS0zNS4wMjYzNTcgMC02Ni43NzgyOTUtMTQuNDg2ODIxLTg5LjY5OTIyNTItMzguMDAzMXoiLz48cGF0aCBmaWxsPSIjZjBkNmI3IiBkPSJtMTc5LjQ5NzY3NCAxNjkuOTcyMDkzLTE4Ljc1MzQ4OCAyLjc3ODI5NS0yNS4zMDIzMjYgMi44Nzc1MTktMTYuMzcyMDkzLjM5Njg5OS0xNS45NzUxOTMtLjQ5NjEyNC0xMi4yMDQ2NTE1LTMuNzcwNTQyLTEwLjgxNTUwMzktMTEuNzA4NTI4LTguNDM0MTA4NS0yMy45MTMxNzgtMS44ODUyNzEzLTUuMTU5NjktMTEuMjEyNDAzMS0zLjc3MDU0Mi02LjU0ODgzNzMtMTAuODE1NTA0LTQuNjYzNTY1OC0xNS40NzkwNyA1LjE1OTY4OTktMTMuNTkzNzk4NSAxMi4yMDQ2NTExLTQuMjY2NjY2NyA5LjgyMzI1NTkgNC42NjM1NjU5IDQuNjYzNTY1OCAxMC4zMTkzNzk4IDUuNjU1ODE0LS44OTMwMjMyIDEuODg1MjcxMy0yLjM4MTM5NTQtMS44ODUyNzEzLTEwLjgxNTUwMzktLjQ5NjEyNC0xMy41OTM3OTg0IDIuNzc4Mjk0NS0xOC43NTM0ODg0LS4wOTkyMjQ4LTEwLjcxNjI3OSA4LjUzMzMzMzQtMTMuNjkzMDIzMyAxNC45ODI5NDU2LTEwLjgxNTUwMzkgMjYuMTk1MzQ5LTExLjIxMjQwMzA4IDI5LjA3Mjg2OCA0LjI2NjY2NjY3IDI1LjMwMjMyNiAxOC4yNTczNjQzMSAxMS43MDg1MjcgMTguNzUzNDg4NCA3LjU0MTA4NSAxMy41OTM3OTg1IDEuODg1MjcxIDMzLjczNjQzNDEtNS42NTU4MTMgMjkuMDcyODY4MS0xMC4zMTkzOCAyNS43OTg0NS05LjcyNDAzMSAxMy43OTIyNDgiLz48cGF0aCBmaWxsPSIjMzM1MDYxIiBkPSJtMTYzLjYyMTcwNSAyNTEuMDM4NzYtNjYuOTc2NzQzOCAyLjc3ODI5NHYxMS4yMTI0MDNsNS42NTU4MTM4IDM5LjM5MjI0OC0yLjc3ODI5NDQgMy4yNzQ0MTktNDYuODM0MTA4NS0xNS45NzUxOTQtMy4yNzQ0MTg2LTUuNjU1ODE0LTQuNjYzNTY1OS01Mi45ODYwNDYtMTEuMDEzOTUzNS0zMS43NTE5MzgtMi4zODEzOTUzLTcuNTQxMDg1IDM3LjUwNjk3NjctMjUuNzk4NDUgMTEuNzA4NTI3MS00LjY2MzU2NiAxMC4zMTkzNzk5IDEyLjcwMDc3NSA4LjkzMDIzMjUgNy45Mzc5ODUgMTAuMzE5MzggMy4yNzQ0MTggNC42NjM1NjYgMS4zODkxNDggNS42NTU4MTQgMjQuNDA5MzAyIDQuMjY2NjY2IDUuMTU5NjkgMTAuODE1NTA0LTMuNzcwNTQzLTcuNTQxMDg1IDE0LjU4NjA0NyA0MC42ODIxNzEgMTkuMjQ5NjEyeiIvPjxwYXRoIGZpbGw9IiM2ZDZiNmQiIGQ9Im01Mi40ODk5MjI1IDg3LjUxNjI3OTEgMTIuMjA0NjUxMS00LjI2NjY2NjcgOS44MjMyNTU5IDQuNjYzNTY1OSA0LjY2MzU2NTggMTAuMzE5Mzc5OCA1LjY1NTgxNC0uODkzMDIzMiAxLjM4OTE0NzMtNS42NTU4MTQtMi43NzgyOTQ2LTEwLjgxNTUwMzggMi43NzgyOTQ2LTI1Ljc5ODQ0OTctMi4zODEzOTU0LTE0LjA4OTkyMjQgOC40MzQxMDg2LTkuODIzMjU1OSAxOC4yNTczNjQyLTE0LjQ4NjgyMTctNS4xNTk2OS03LjA0NDk2MTItMjUuNzk4NDQ5NCAxMi43MDA3NzUyLTEwLjgxNTUwMzkgOC40MzQxMDg1LTYuMDUyNzEzMiAxMy4wOTc2NzQ0LTkuMzI3MTMxOCAxMi43MDA3NzUyLTIuNzc4Mjk0NSAxNC45ODI5NDU4eiIvPjxwYXRoIGZpbGw9IiNkY2Q5ZDgiIGQ9Im03MS43Mzk1MzQ5IDQzLjQ2MDQ2NTFzNy4wNDQ5NjEyLTE3LjM2NDM0MTEgMzUuMTI1NTgxMS0yNS43OTg0NDk2YzI4LjA4MDYyLTguNDM0MTA4NTIgMS4zODkxNDgtNi4wNTI3MTMyIDEuMzg5MTQ4LTYuMDUyNzEzMmwtMzAuNDYyMDE1OSAxMS43MDg1MjcyLTExLjcwODUyNzIgMTEuNzA4NTI3MS01LjE1OTY4OTkgOS4zMjcxMzE4eiIvPjxwYXRoIGZpbGw9IiNkY2Q5ZDgiIGQ9Im01Ny42NDk2MTI0IDg0LjI0MTg2MDVzLTkuODIzMjU1OC0zMi44NDM0MTA5IDI3LjY4MzcyMDktMzcuNTA2OTc2OGwtMS4zODkxNDczLTUuNjU1ODEzOS0yNS43OTg0NDk2IDYuMDUyNzEzMS03LjU0MTA4NTIgMjQuNDA5MzAyNCAxLjg4NTI3MTMgMTUuOTc1MTkzOHoiLz48cGF0aCBmaWxsPSIjZjdlNGNkIiBkPSJtNzIuNjMyNTU4MSAxMjcuODAxNTUgNi4xNTE5MzgtNS45NTM0ODhzMi43NzgyOTQ2LjI5NzY3NCAzLjI3NDQxODYgMy41NzIwOTNjLjQ5NjEyNDEgMy4yNzQ0MTkgMS44ODUyNzEzIDMyLjg0MzQxMSAyMi4wMjc5MDczIDQ4LjcxOTM4IDEuODg1MjcxIDEuNDg4MzcyLTE0Ljk4Mjk0Ni0yLjM4MTM5NS0xNC45ODI5NDYtMi4zODEzOTVsLTE0Ljk4Mjk0NTgtMjMuNDE3MDU1Ii8+PHBhdGggZmlsbD0iI2Y3ZTRjZCIgZD0ibTE1OC44NTg5MTUgMTE4Ljg3MTMxOHMxLjA5MTQ3My0xNC4xODkxNDcgNC45NjEyNC0xMy4wOTc2NzVjMy44Njk3NjcgMS4wOTE0NzMgMy44Njk3NjcgNC45NjEyNDEgMy44Njk3NjcgNC45NjEyNDFzLTkuMzI3MTMxIDUuOTUzNDg4LTguODMxMDA3IDguMTM2NDM0Ii8+PHBhdGggZmlsbD0iI2Y3ZTRjZCIgZD0ibTE5Ny43NTUwMzkgNjYuODc3NTE5NHMtNy43Mzk1MzUgMS41ODc1OTY5LTguNDM0MTA5IDguNDM0MTA4NWMtLjY5NDU3MyA2Ljg0NjUxMTYgOC40MzQxMDkgMS4zODkxNDczIDkuODIzMjU2Ljg5MzAyMzMiLz48cGF0aCBmaWxsPSIjZjdlNGNkIiBkPSJtMTQxLjA5NzY3NCA2Ny4zNzM2NDM0cy0xMC4zMTkzNzkgMS4zODkxNDczLTEwLjMxOTM3OSA3LjkzNzk4NDUgMTEuNzA4NTI3IDYuMDUyNzEzMiAxNC45ODI5NDUgMy4yNzQ0MTg2Ii8+PHBhdGggZmlsbD0iI2Y3ZTRjZCIgZD0ibTc3LjM5NTM0ODggOTcuODM1NjU4OXMtMTcuNzYxMjQwMy0xMC44MTU1MDM5LTE5LjY0NjUxMTYtLjQ5NjEyNGMtMS44ODUyNzEzIDEwLjMxOTM4MDEtNi4wNTI3MTMyIDE3Ljc2MTI0MDEgMi43NzgyOTQ2IDI4LjU3Njc0NDFsLTYuMDUyNzEzMi0xLjg4NTI3MS01LjY1NTgxMzktMTQuNDg2ODIyLTEuODg1MjcxNC0xNC4wODk5MjI0IDEwLjgxNTUwMzktMTEuMjEyNDAzMSAxMi4yMDQ2NTEyLjg5MzAyMzIgNy4wNDQ5NjEyIDUuNjU1ODE0eiIvPjxwYXRoIGZpbGw9IiNmN2U0Y2QiIGQ9Im04NS44Mjk0NTc0IDY4LjI2NjY2NjdzNy45Mzc5ODQ1LTQxLjI3NzUxOTQgNDguMjIzMjU1Ni00OS4yMTU1MDM5YzMzLjE0MTA4NS02LjU0ODgzNzIgNTAuNjA0NjUxIDEuMzg5MTQ3MyA1Ny4xNTM0ODkgOC45MzAyMzI1IDAgMC0yOS41Njg5OTMtMzUuMTI1NTgxMzUtNTcuNjQ5NjEzLTI0LjQwOTMwMjI4LTI4LjA4MDYyIDEwLjgxNTUwMzg4LTQ4LjcxOTM3OTcgMzAuNDYyMDE1NDgtNDguMjIzMjU1NyA0My4wNjM1NjU4OC43OTM3OTg1IDIxLjYzMTAwNzguNDk2MTI0MSAyMS42MzEwMDc4LjQ5NjEyNDEgMjEuNjMxMDA3OCIvPjxwYXRoIGZpbGw9IiNmN2U0Y2QiIGQ9Im0xOTQuNDgwNjIgMzIuNjQ0OTYxMnMtMTMuNTkzNzk4LS40OTYxMjQtMTQuMDg5OTIyIDExLjcwODUyNzJjMCAwIDAgMS44ODUyNzEzLjg5MzAyMyAzLjc3MDU0MjYgMCAwIDEwLjgxNTUwNC0xMi4yMDQ2NTEyIDE3LjM2NDM0MS01LjY1NTgxMzkiLz48cGF0aCBmaWxsPSIjZjdlNGNkIiBkPSJtMTM1LjA0NDk2MSA0OS40MTM5NTM1cy0yLjM4MTM5NS0xOC42NTQyNjM2LTE4LjI1NzM2NC03LjgzODc1OTdjLTEwLjMxOTM4IDcuMDQ0OTYxMi05LjMyNzEzMiAxNi44NjgyMTcxLTcuNTQxMDg1IDE4Ljc1MzQ4ODQgMS44ODUyNzEgMS44ODUyNzEzIDEuMzg5MTQ3IDUuNjU1ODEzOSAyLjc3ODI5NCAzLjA3NTk2OSAxLjM4OTE0Ny0yLjU3OTg0NS45OTIyNDgtMTEuMDEzOTUzNSA2LjE1MTkzOC0xMy4zOTUzNDg5IDUuMDYwNDY1LTIuMzgxMzk1MyAxMy41OTM3OTktNC45NjEyNDAzIDE2Ljg2ODIxNy0uNTk1MzQ4OCIvPjxwYXRoIGZpbGw9IiM0OTcyOGIiIGQ9Im05MC45ODkxNDczIDE3Ni4wMjQ4MDYtNDQuMDU1ODE0IDE5LjY0NjUxMnMxOC4yNTczNjQ0IDcyLjYzMjU1OCA4LjkzMDIzMjYgOTUuMTU2NTg5bC02LjU0ODgzNzItMi4zODEzOTUtLjQ5NjEyNC0yNy42ODM3MjEtMTIuMjA0NjUxMi01Mi4zOTA2OTgtNS4xNTk2ODk5LTE0LjQ4NjgyMiA0NS45NDEwODUyLTMwLjk1ODEzOXoiLz48cGF0aCBmaWxsPSIjNDk3MjhiIiBkPSJtOTUuNDU0MjYzNiAyMTYuMjEwODUzIDYuMjUxMTYyNCA3LjY0MDMxdjI4LjA4MDYyaC03LjQ0MTg2MDFzLS44OTMwMjMzLTE5LjY0NjUxMi0uODkzMDIzMy0yMi4wMjc5MDcuODkzMDIzMy0xMC44MTU1MDQuODkzMDIzMy0xMC44MTU1MDQiLz48cGF0aCBmaWxsPSIjNDk3MjhiIiBkPSJtOTUuNjUyNzEzMiAyNTYuMTk4NDUtMjEuMTM0ODgzNy44OTMwMjMgNi4wNTI3MTMxIDQuMjY2NjY3IDE0Ljk4Mjk0NTggMi4zODEzOTUiLz48cGF0aCBmaWxsPSIjMzM1MDYxIiBkPSJtMTY3Ljc4OTE0NyAyNTEuNTM0ODg0IDE3LjM2NDM0MS0uNDk2MTI0IDQuMjY2NjY3IDQzLjA2MzU2Ni0xNy43NjEyNCAyLjM4MTM5NXoiLz48cGF0aCBmaWxsPSIjMzM1MDYxIiBkPSJtMTcyLjQ1MjcxMyAyNTEuNTM0ODg0IDI2LjE5NTM0OS0xLjM4OTE0OHMxMC44MTU1MDQtMjcuMTg3NTk2IDEwLjgxNTUwNC0yOC41NzY3NDRjMC0xLjM4OTE0NyA5LjMyNzEzMi0zOS4zOTIyNDggOS4zMjcxMzItMzkuMzkyMjQ4bC0yMS4xMzQ4ODQtMjIuMDI3OTA3LTQuMjY2NjY3LTMuNzcwNTQyLTExLjIxMjQwMyAxMS4yMTI0MDN2NDMuNTU5Njl6Ii8+PHBhdGggZmlsbD0iIzQ5NzI4YiIgZD0ibTE4NC4xNjEyNCAyNDguMjYwNDY1LTE2LjM3MjA5MyAzLjI3NDQxOSAyLjM4MTM5NiAxMy4wOTc2NzRjNi4wNTI3MTMgMi43NzgyOTUgMTYuMzcyMDkzLTQuNjYzNTY2IDE2LjM3MjA5My00LjY2MzU2NiIvPjxwYXRoIGZpbGw9IiM0OTcyOGIiIGQ9Im0xODQuNjU3MzY0IDE2Ni4yMDE1NSAzMi44NDM0MTEgMjQuNDA5MzAzLjg5MzAyMy0xMS4yMTI0MDMtMjQuODA2MjAxLTIyLjkyMDkzMXoiLz48cGF0aCBmaWxsPSIjZmZmIiBkPSJtMTExLjkyNTU4MSAzNDMuODEzOTUzLTkuNzI0MDMxLTM5LjM5MjI0OC00Ljg2MjAxNTEtMjkuMDcyODY4LS43OTM3OTg1LTIxLjUzMTc4MyA0My45NTY1ODk2LTIuMzgxMzk1aDI3LjI4NjgyMWwtMi40ODA2MiA0OS4yMTU1MDQgNC4yNjY2NjcgMzguMDAzMTAxLS40OTYxMjQgNy4wNDQ5NjEtMzUuNjIxNzA2IDIuNzc4Mjk0eiIvPjxwYXRoIGZpbGw9IiNkY2Q5ZDgiIGQ9Im0xNjEuNzM2NDM0IDI1MS4wMzg3NnMtMi4zODEzOTUgNDguNzE5MzggNC42NjM1NjYgODMuNDQ4MDYyYzAgMC0xNC4wODk5MjIgOC45MzAyMzItMzQuNjI5NDU3IDExLjIxMjQwM2wzOS4zOTIyNDgtMS4zODkxNDcgNC42NjM1NjYtMi43NzgyOTUtNS42NTU4MTQtNzYuOC0xLjQ4ODM3Mi0xNi40NzEzMTgiLz48cGF0aCBmaWxsPSIjZmZmIiBkPSJtMTkwLjExNDcyOSAyOTAuNDMxMDA4IDE4LjI1NzM2NC01LjE1OTY5IDM0LjYyOTQ1Ny0xLjg4NTI3MSA1LjE1OTY5LTE1Ljk3NTE5NC05LjMyNzEzMS0yNy42ODM3MjEtMTAuODE1NTA0LTEuMzg5MTQ4LTE0Ljk4Mjk0NiA0LjY2MzU2Ni0xNC4yODgzNzIgNy4wNDQ5NjItNy42NDAzMS0xLjM4OTE0OC01Ljk1MzQ4OSAyLjM4MTM5NiIvPjxwYXRoIGZpbGw9IiNkY2Q5ZDgiIGQ9Im0xODkuODE3MDU0IDI4MS4wMDQ2NTFzMTIuMjA0NjUxLTUuNjU1ODE0IDE0LjA4OTkyMy01LjE1OTY5bC01LjE1OTY5LTI1Ljc5ODQ0OSA2LjA1MjcxMy0yLjM4MTM5NnM0LjI2NjY2NyAyNC40MDkzMDMgNC4yNjY2NjcgMjcuMTg3NTk3YzAgMCAyNi4xOTUzNDkgMS4zODkxNDcgMjguNTc2NzQ0IDEuMzg5MTQ3IDAgMCA1LjY1NTgxNC0xMC44MTU1MDMgNC4yNjY2NjctMjIuMDI3OTA3bDUuMTU5Njg5IDE0Ljk4Mjk0Ni40OTYxMjQgOC40MzQxMDktNy41NDEwODUgMTEuMjEyNDAzLTguNDM0MTA4IDEuODg1MjcxLTE0LjA4OTkyMy0uNDk2MTI0LTQuNjYzNTY2LTYuMDUyNzEzLTE2LjM3MjA5MyAyLjM4MTM5NS01LjE1OTY5IDEuODg1MjcyIi8+PHBhdGggZmlsbD0iI2ZmZiIgZD0ibTE3MS4zNjEyNCAyNDcuNzY0MzQxLTEwLjMxOTM4LTI2LjE5NTM0OS0xMC44MTU1MDMtMTUuNDc5MDdzMi4zODEzOTUtNi41NDg4MzcgNS42NTU4MTQtNi41NDg4MzdoMTAuODE1NTAzbDEwLjMxOTM4IDMuNzcwNTQzLS44OTMwMjMgMTcuMzY0MzQxeiIvPjxwYXRoIGZpbGw9IiNkY2Q5ZDgiIGQ9Im0xNzMuNDQ0OTYxIDIzOC44MzQxMDlzLTEzLjA5NzY3NC0yNS4zMDIzMjYtMTMuMDk3Njc0LTI5LjA3Mjg2OWMwIDAgMi4zODEzOTUtNS42NTU4MTQgNS42NTU4MTQtNC4yNjY2NjYgMy4yNzQ0MTggMS4zODkxNDcgMTAuMzE5MzggNS4xNTk2OSAxMC4zMTkzOCA1LjE1OTY5di04LjkzMDIzM2wtMTUuOTc1MTk0LTMuMjc0NDE5LTEwLjgxNTUwNCAxLjM4OTE0OCAxOC4yNTczNjQgNDMuMjYyMDE1IDMuNzcwNTQzLjQ5NjEyNCIvPjxwYXRoIGZpbGw9IiNmZmYiIGQ9Im0xMTYuMDkzMDIzIDE3Ny4wMTcwNTQtMTIuOTk4NDQ5LTEuMzg5MTQ3LTEyLjIwNDY1MTUtMy43NzA1NDN2NC4yNjY2NjdsNS45NTM0ODg0IDYuNTQ4ODM3IDE4Ljc1MzQ4ODEgOC40MzQxMDkiLz48cGF0aCBmaWxsPSIjZGNkOWQ4IiBkPSJtOTUuMTU2NTg5MSAxNzguNDA2MjAyczE0LjQ4NjgyMTkgNi4wNTI3MTMgMTkuMjQ5NjEyOSA0LjY2MzU2NWwuNDk2MTI0IDUuNjU1ODE0LTEzLjA5NzY3NS0yLjc3ODI5NC03LjkzNzk4NDMtNS42NTU4MTR6Ii8+PHBhdGggZmlsbD0iI2QzMzgzMyIgZD0ibTE5MC4xMTQ3MjkgMjAxLjEyODY4MmMtNy45Mzc5ODUtLjE5ODQ0OS0xNS4xODEzOTYtMS4xOTA2OTgtMjEuNDMyNTU4LTIuOTc2NzQ0LjM5Njg5OS0yLjU3OTg0NS0uMzk2OS01LjA2MDQ2NS4yOTc2NzQtNi45NDU3MzYgMS43ODYwNDYtMS4yODk5MjMgNC42NjM1NjYtMS4yODk5MjMgNy4zNDI2MzYtMS41ODc1OTctMi4yODIxNzEtMS4wOTE0NzMtNS41NTY1OS0xLjU4NzU5Ny04LjEzNjQzNC0uODkzMDI0LS4wOTkyMjUtMS43ODYwNDYtLjg5MzAyNC0yLjg3NzUxOS0xLjM4OTE0OC00LjI2NjY2NiA0LjQ2NTExNy0xLjU4NzU5NyAxNC45ODI5NDYtMTIuMDA2MjAyIDIwLjkzNjQzNC04LjYzMjU1OCAyLjg3NzUyIDEuNjg2ODIxIDQuMDY4MjE3IDExLjAxMzk1MyA0LjI2NjY2NyAxNS42Nzc1MTkuMTk4NDUgMy43NzA1NDMtLjM5Njg5OSA3LjU0MTA4NS0xLjg4NTI3MSA5LjYyNDgwNiIvPjxwYXRoIHN0cm9rZS13aWR0aD0iMiIgc3Ryb2tlPSIjZDMzODMzIiBkPSJtMTkwLjExNDcyOSAyMDEuMTI4NjgyYy03LjkzNzk4NS0uMTk4NDQ5LTE1LjE4MTM5Ni0xLjE5MDY5OC0yMS40MzI1NTgtMi45NzY3NDQuMzk2ODk5LTIuNTc5ODQ1LS4zOTY5LTUuMDYwNDY1LjI5NzY3NC02Ljk0NTczNiAxLjc4NjA0Ni0xLjI4OTkyMyA0LjY2MzU2Ni0xLjI4OTkyMyA3LjM0MjYzNi0xLjU4NzU5Ny0yLjI4MjE3MS0xLjA5MTQ3My01LjU1NjU5LTEuNTg3NTk3LTguMTM2NDM0LS44OTMwMjQtLjA5OTIyNS0xLjc4NjA0Ni0uODkzMDI0LTIuODc3NTE5LTEuMzg5MTQ4LTQuMjY2NjY2IDQuNDY1MTE3LTEuNTg3NTk3IDE0Ljk4Mjk0Ni0xMi4wMDYyMDIgMjAuOTM2NDM0LTguNjMyNTU4IDIuODc3NTIgMS42ODY4MjEgNC4wNjgyMTcgMTEuMDEzOTUzIDQuMjY2NjY3IDE1LjY3NzUxOS4xOTg0NSAzLjc3MDU0My0uMzk2ODk5IDcuNTQxMDg1LTEuODg1MjcxIDkuNjI0ODA2eiIvPjxwYXRoIGZpbGw9IiNkMzM4MzMiIGQ9Im0xNTIuMTExNjI4IDE4OC4xMzAyMzNjMCAuNTk1MzQ4IDAgMS4xOTA2OTctLjA5OTIyNSAxLjc4NjA0Ni0yLjQ4MDYyIDEuNTg3NTk3LTYuNDQ5NjEyIDEuNTg3NTk3LTkuMjI3OTA3IDIuOTc2NzQ0IDMuOTY4OTkyLjE5ODQ1IDcuMTQ0MTg2IDEuMTkwNjk4IDkuOTIyNDgxIDIuNDgwNjItLjA5OTIyNSAxLjQ4ODM3My0uMDk5MjI1IDMuMDc1OTY5LS4xOTg0NSA0LjU2NDM0MS00LjU2NDM0MSAzLjA3NTk2OS04LjczMTc4MyA3LjczOTUzNS0xNC4wODk5MjIgMTAuNzE2MjgtMi41Nzk4NDUgMS4zODkxNDctMTEuNDEwODUzIDQuOTYxMjQtMTQuMDg5OTIzIDQuMjY2NjY2LTEuNDg4MzcyLS4zOTY4OTktMS42ODY4MjItMi4yODIxNy0yLjI4MjE3LTQuMDY4MjE3LTEuMjg5OTIzLTMuNzcwNTQyLTQuMjY2NjY3LTkuOTIyNDgtNC41NjQzNDEtMTUuNjc3NTE5LS4yOTc2NzUtNy4yNDM0MTEtMS4wOTE0NzMtMTkuNDQ4MDYyIDYuNzQ3Mjg2LTE3Ljk1OTY5IDYuMzUwMzg4IDEuMTkwNjk4IDEzLjY5MzAyNCA0LjA2ODIxNyAxOC41NTUwMzkgNi43NDcyODcgMy4wNzU5NjkgMS43ODYwNDYgNC43NjI3OTEgMy43NzA1NDIgOS4zMjcxMzIgNC4xNjc0NDIiLz48cGF0aCBzdHJva2Utd2lkdGg9IjIiIHN0cm9rZT0iI2QzMzgzMyIgZD0ibTE1Mi4xMTE2MjggMTg4LjEzMDIzM2MwIC41OTUzNDggMCAxLjE5MDY5Ny0uMDk5MjI1IDEuNzg2MDQ2LTIuNDgwNjIgMS41ODc1OTctNi40NDk2MTIgMS41ODc1OTctOS4yMjc5MDcgMi45NzY3NDQgMy45Njg5OTIuMTk4NDUgNy4xNDQxODYgMS4xOTA2OTggOS45MjI0ODEgMi40ODA2Mi0uMDk5MjI1IDEuNDg4MzczLS4wOTkyMjUgMy4wNzU5NjktLjE5ODQ1IDQuNTY0MzQxLTQuNTY0MzQxIDMuMDc1OTY5LTguNzMxNzgzIDcuNzM5NTM1LTE0LjA4OTkyMiAxMC43MTYyOC0yLjU3OTg0NSAxLjM4OTE0Ny0xMS40MTA4NTMgNC45NjEyNC0xNC4wODk5MjMgNC4yNjY2NjYtMS40ODgzNzItLjM5Njg5OS0xLjY4NjgyMi0yLjI4MjE3LTIuMjgyMTctNC4wNjgyMTctMS4yODk5MjMtMy43NzA1NDItNC4yNjY2NjctOS45MjI0OC00LjU2NDM0MS0xNS42Nzc1MTktLjI5NzY3NS03LjI0MzQxMS0xLjA5MTQ3My0xOS40NDgwNjIgNi43NDcyODYtMTcuOTU5NjkgNi4zNTAzODggMS4xOTA2OTggMTMuNjkzMDI0IDQuMDY4MjE3IDE4LjU1NTAzOSA2Ljc0NzI4NyAzLjA3NTk2OSAxLjc4NjA0NiA0Ljc2Mjc5MSAzLjc3MDU0MiA5LjMyNzEzMiA0LjE2NzQ0MnoiLz48cGF0aCBmaWxsPSIjZDMzODMzIiBkPSJtMTU2LjU3Njc0NCAxOTYuNzYyNzkxYy0uNjk0NTczLTMuOTY4OTkzLTEuNDg4MzcyLTUuMDYwNDY1LTEuMTkwNjk3LTguNTMzMzM0IDEwLjYxNzA1NC03LjA0NDk2MSAxMi41MDIzMjUgMTIuMTA1NDI3IDEuMTkwNjk3IDguNTMzMzM0Ii8+PHBhdGggc3Ryb2tlLXdpZHRoPSIyIiBzdHJva2U9IiNkMzM4MzMiIGQ9Im0xNTYuNTc2NzQ0IDE5Ni43NjI3OTFjLS42OTQ1NzMtMy45Njg5OTMtMS40ODgzNzItNS4wNjA0NjUtMS4xOTA2OTctOC41MzMzMzQgMTAuNjE3MDU0LTcuMDQ0OTYxIDEyLjUwMjMyNSAxMi4xMDU0MjcgMS4xOTA2OTcgOC41MzMzMzR6Ii8+PHBhdGggZmlsbD0iI2VmM2QzYSIgZD0ibTE3MS44NTczNjQgMTk5LjkzNzk4NHMtMy4yNzQ0MTgtNC42NjM1NjUtLjg5MzAyMy02LjA1MjcxM2MyLjM4MTM5NS0xLjM4OTE0NyA0LjY2MzU2NiAwIDYuMDUyNzEzLTIuMzgxMzk1IDEuMzg5MTQ4LTIuMzgxMzk1IDAtMy43NzA1NDMuNDk2MTI0LTYuNTQ4ODM3LjQ5NjEyNC0yLjc3ODI5NSAyLjc3ODI5NS0zLjI3NDQxOSA1LjE1OTY5LTMuNzcwNTQzIDIuMzgxMzk2LS40OTYxMjQgOC45MzAyMzMtMS4zODkxNDcgOS44MjMyNTYuODkzMDIzbC0yLjc3ODI5NS04LjQzNDEwOC01LjY1NTgxMy0xLjg4NTI3MS0xNy43NjEyNDEgMTAuMzE5Mzc5LS44OTMwMjMgNS4xNTk2OXYxMC4zMTkzOCIvPjxwYXRoIGZpbGw9IiNlZjNkM2EiIGQ9Im0xMjIuNjQxODYgMjE1LjQxNzA1NGMtLjU5NTM0OC03LjM0MjYzNS0xLjE5MDY5Ny0xNC41ODYwNDYtMS43ODYwNDYtMjEuOTI4NjgyLS45OTIyNDgtMTAuOTE0NzI5IDIuNTc5ODQ1LTkuMDI5NDU3IDEyLjEwNTQyNi05LjAyOTQ1NyAxLjQ4ODM3MiAwIDguOTMwMjMzIDEuNjg2ODIxIDkuNDI2MzU3IDIuNzc4Mjk0IDIuNTc5ODQ1IDUuMjU4OTE1LTQuMjY2NjY3IDQuMDY4MjE3IDIuOTc2NzQ0IDguMDM3MjEgNi4wNTI3MTMgMy4yNzQ0MTggMTYuODY4MjE3LTEuOTg0NDk3IDE0LjM4NzU5Ny05LjQyNjM1Ny0xLjM4OTE0Ny0xLjY4NjgyMi03LjE0NDE4Ni0uNDk2MTI0LTkuMjI3OTA3LTEuNTg3NTk3LTMuNjcxMzE4LTEuODg1MjcxLTcuMzQyNjM2LTMuNzcwNTQzLTExLjAxMzk1My01LjY1NTgxNC00LjY2MzU2Ni0yLjM4MTM5NS0xNS4zNzk4NDUtNS45NTM0ODgtMjAuMzQxMDg2LTIuNTc5ODQ1LTEyLjYwMTU1IDguNTMzMzM0Ljc5Mzc5OSAyOS45NjU4OTIgNS4yNTg5MTUgMzguODk2MTI0Ii8+PGcgZmlsbD0iIzIzMWYyMCI+PHBhdGggZD0ibTEzNS4wNDQ5NjEgNDkuNDEzOTUzNWMtMTIuOC0yLjk3Njc0NDItMTkuMTUwMzg3IDUuMzU4MTM5NS0yMy4wMjAxNTUgMTMuOTkwNjk3Ny0zLjQ3Mjg2OC0uNzkzNzk4NS0yLjA4MzcyMS01LjU1NjU4OTItMS4xOTA2OTctNy45Mzc5ODQ1IDIuMjgyMTctNi4yNTExNjI4IDExLjUxMDA3Ny0xNC42ODUyNzE0IDE5LjA1MTE2Mi0xMy40OTQ1NzM3IDMuMTc1MTk0LjM5Njg5OTIgNy41NDEwODYgMy4zNzM2NDM0IDUuMTU5NjkgNy40NDE4NjA1Ii8+PHBhdGggZD0ibTE5Ny4yNTg5MTUgNjMuOTAwNzc1MmguNTk1MzQ5YzIuODc3NTE5IDUuOTUzNDg4NCA1LjM1ODEzOSAxMi4zMDM4NzYgOS4wMjk0NTcgMTcuNjYyMDE1NS0yLjQ4MDYyIDUuNzU1MDM4OC0xOC40NTU4MTQgMTAuNzE2Mjc5MS0xOC4yNTczNjQuNTk1MzQ4OCAzLjQ3Mjg2OC0xLjQ4ODM3MjEgOS40MjYzNTYtLjI5NzY3NDQgMTIuNTAyMzI1LTIuMjgyMTcwNS0xLjc4NjA0Ni00Ljg2MjAxNTUtNC4yNjY2NjYtOS4wMjk0NTc0LTMuODY5NzY3LTE1Ljk3NTE5MzgiLz48cGF0aCBkPSJtMTQxLjQ5NDU3NCA2NC4wOTkyMjQ4YzIuNzc4Mjk0IDUuMDYwNDY1MSAzLjY3MTMxNyAxMC4zMTkzNzk5IDcuNTQxMDg1IDE0LjA4OTkyMjUgMS43ODYwNDYgMS42ODY4MjE3IDUuMTU5NjkgMy43NzA1NDI2IDMuNDcyODY4IDguNTMzMzMzMy0uMzk2ODk5IDEuMDkxNDcyOS0zLjI3NDQxOCAzLjU3MjA5My00Ljk2MTI0IDQuMDY4MjE3MS02LjA1MjcxMyAxLjc4NjA0NjUtMjAuMjQxODYxLjM5Njg5OTItMTUuNDc5MDctNy4yNDM0MTA5IDUuMDYwNDY1LjE5ODQ0OTYgMTEuODA3NzUyIDMuMjc0NDE4NiAxNS41NzgyOTUtLjM5Njg5OTItMi44Nzc1Mi00LjU2NDM0MTEtOC4wMzcyMS0xMy42OTMwMjMzLTYuMTUxOTM4LTE5LjA1MTE2MjgiLz48cGF0aCBkPSJtMTk0Ljk3Njc0NCAxMTUuMTAwNzc1Yy05LjEyODY4MiA1Ljg1NDI2NC0xOS4zNDg4MzcgMTIuMzAzODc2LTM0LjQzMTAwOCAxMC44MTU1MDQtMy4xNzUxOTMtMi43NzgyOTUtNC40NjUxMTYtOS4wMjk0NTctMS4yODk5MjItMTMuMDk3Njc0IDEuNTg3NTk3IDIuNzc4Mjk0LjU5NTM0OSA3LjkzNzk4NCA1LjE1OTY5IDguNzMxNzgzIDguNTMzMzMzIDEuNDg4MzcyIDE4LjQ1NTgxNC01LjI1ODkxNSAyNC42MDc3NTItNy41NDEwODYgMy43NzA1NDItNi40NDk2MTItLjI5NzY3NS04LjczMTc4My0zLjc3MDU0My0xMi44OTkyMjQtNy4wNDQ5NjEtOC40MzQxMDktMTYuMzcyMDkzLTE4Ljk1MTkzODUtMTYuMDc0NDE4LTMxLjU1MzQ4ODkgMi44Nzc1MTktMi4wODM3MjA5IDMuMDc1OTY5IDMuMTc1MTkzOCAzLjQ3Mjg2OCA0LjA2ODIxNzEgMy42NzEzMTggOC41MzMzMzMzIDEyLjg5OTIyNSAxOS41NDcyODY4IDE5LjU0NzI4NyAyNi44ODk5MjI4IDEuNjg2ODIxIDEuNzg2MDQ2IDQuMzY1ODkxIDMuNTcyMDkzIDQuNjYzNTY2IDQuNzYyNzkuODkzMDIzIDMuMzczNjQ0LTIuMjgyMTcxIDcuNTQxMDg2LTEuODg1MjcyIDkuODIzMjU2Ii8+PHBhdGggZD0ibTc0LjEyMDkzMDIgMTA4Ljk0ODgzN2MtMi44Nzc1MTkzLTEuNjg2ODIxLTMuNTcyMDkzLTguODMxMDA4LTYuOTQ1NzM2NC05LjAyOTQ1NzItNC44NjIwMTU1LS4yOTc2NzQ0LTMuOTY4OTkyMiA5LjMyNzEzMjItMy45Njg5OTIyIDE0Ljk4Mjk0NjItMy4yNzQ0MTg3LTIuOTc2NzQ1LTMuODY5NzY3NS0xMi4zMDM4NzYtMS40ODgzNzIxLTE3LjA2NjY2NzEtMi43NzgyOTQ2LTEuMzg5MTQ3My0zLjk2ODk5MjMgMS40ODgzNzIxLTUuNTU2NTg5MiAyLjQ4MDYyMDEgMi4wODM3MjA5LTE0LjM4NzU5NjggMjEuMTM0ODgzNy02LjY0ODA2MTkgMTcuOTU5Njg5OSA4LjYzMjU1OCIvPjxwYXRoIGQ9Im0yMDAuNzMxNzgzIDEyMS4xNTM0ODhjLTQuMjY2NjY3IDguMTM2NDM0LTEwLjMxOTM4IDE3LjA2NjY2Ny0yMi44MjE3MDUgMTcuMzY0MzQxLS4yOTc2NzUtMi41Nzk4NDUtLjQ5NjEyNS02LjY0ODA2MiAwLTguMjM1NjU4IDkuNjI0ODA2LS45OTIyNDkgMTUuNTc4Mjk0LTUuODU0MjY0IDIyLjgyMTcwNS05LjEyODY4MyIvPjxwYXRoIGQ9Im0xNDAuOCAxMjYuNDEyNDAzYzcuOTM3OTg0IDQuMTY3NDQyIDIyLjYyMzI1NiA0LjY2MzU2NiAzMy41Mzc5ODQgNC4zNjU4OTIuNTk1MzQ5IDIuMzgxMzk1LjU5NTM0OSA1LjM1ODEzOS41OTUzNDkgOC4yMzU2NTgtMTMuOTkwNjk3LjU5NTM0OS0zMC40NjIwMTUtMi44Nzc1MTktMzQuMTMzMzMzLTEyLjYwMTU1Ii8+PHBhdGggZD0ibTEzOS4zMTE2MjggMTM0LjE1MTkzOGM1LjU1NjU4OSAxMy44OTE0NzMgMjQuNTA4NTI3IDEyLjMwMzg3NiA0MC40ODM3MjEgMTEuOTA2OTc3LS42OTQ1NzQgMS43ODYwNDYtMi4xODI5NDYgMy45Njg5OTItNC4xNjc0NDIgNC42NjM1NjYtNS4xNTk2OSAyLjA4MzcyMS0xOS4yNDk2MTIgMy42NzEzMTctMjYuMzkzNzk4LS4wOTkyMjUtNC40NjUxMTctMi4zODEzOTYtNy40NDE4NjEtNy44Mzg3Ni05LjkyMjQ4MS0xMS4wMTM5NTQtMS4wOTE0NzMtMS40ODgzNzItNy4wNDQ5NjEtNS4zNTgxMzkgMC01LjQ1NzM2NCIvPjwvZz48cGF0aCBmaWxsPSIjODFiMGM0IiBkPSJtMTk0LjI4MjE3MSAyMTAuNjU0MjY0Yy02LjQ0OTYxMyAxMS4xMTMxNzgtMTIuNzAwNzc2IDIyLjUyNDAzMS0yMC4zNDEwODYgMzIuMjQ4MDYyIDMuMTc1MTk0LTkuNDI2MzU3IDQuNTY0MzQxLTI1LjMwMjMyNiA1LjA2MDQ2NS0zNy40MDc3NTIgNi43NDcyODctMy4xNzUxOTQgMTIuNTAyMzI2LjY5NDU3MyAxNS4yODA2MjEgNS4xNTk2OSIvPjxwYXRoIGZpbGw9IiMyMzFmMjAiIGQ9Im0yMjkuMTEwMDc4IDI1MC41NDI2MzZjLTcuMjQzNDExIDEuNDg4MzcyLTEyLjMwMzg3NiA4LjUzMzMzMy0xOS40NDgwNjIgOC4wMzcyMDkgMy45Njg5OTItNS40NTczNjQgMTAuNzE2Mjc5LTcuODM4NzYgMTkuNDQ4MDYyLTguMDM3MjA5Ii8+PHBhdGggZmlsbD0iIzIzMWYyMCIgZD0ibTIzMi4yODUyNzEgMjYxLjg1NDI2NGMtNS45NTM0ODguNTk1MzQ4LTEyLjg5OTIyNCAxLjU4NzU5Ni0xOC44NTI3MTMgMS4wOTE0NzIgMi44Nzc1Mi00LjM2NTg5MSAxMy43OTIyNDgtMi43NzgyOTQgMTguODUyNzEzLTEuMDkxNDcyIi8+PHBhdGggZmlsbD0iIzIzMWYyMCIgZD0ibTIzNC4zNjg5OTIgMjcxLjY3NzUxOWMtNi42NDgwNjIuMDk5MjI1LTE0Ljg4MzcyMSAwLTIxLjIzNDEwOC0uNDk2MTI0IDMuNzcwNTQyLTQuMDY4MjE3IDE2Ljk2NzQ0Mi0xLjQ4ODM3MiAyMS4yMzQxMDguNDk2MTI0Ii8+PHBhdGggZmlsbD0iI2RjZDlkOCIgZD0ibTE4MS43Nzk4NDUgMjk4LjQ2ODIxN2MuOTkyMjQ4IDguMzM0ODg0IDQuMjY2NjY3IDE2Ljc2ODk5MiAzLjg2OTc2NyAyNS44OTc2NzQtMy42NzEzMTcgMS4xOTA2OTgtNS43NTUwMzggMi4yODIxNzEtMTAuNzE2Mjc5IDIuMjgyMTcxLS4yOTc2NzQtNy43Mzk1MzUtMS4zODkxNDctMTkuNjQ2NTEyLTEuMDkxNDczLTI3LjA4ODM3MiAyLjM4MTM5Ni4xOTg0NSA1Ljk1MzQ4OS0xLjY4NjgyMiA3LjkzNzk4NS0xLjA5MTQ3MyIvPjxwYXRoIGZpbGw9IiNmMGQ2YjciIGQ9Im0xNzEuMDYzNTY2IDE3NS40Mjk0NTdjLTMuMzczNjQ0IDIuMTgyOTQ2LTYuMTUxOTM4IDQuODYyMDE2LTkuNDI2MzU3IDcuMjQzNDExLTcuMTQ0MTg2LjM5Njg5OS0xMS4wMTM5NTMtLjQ5NjEyNC0xNi4xNzM2NDMtNC41NjQzNDEuMDk5MjI1LS4yOTc2NzQuNTk1MzQ5LS4xOTg0NDkuNTk1MzQ5LS41OTUzNDkgNy42NDAzMSAzLjM3MzY0NCAxNy4zNjQzNDEtMS4zODkxNDcgMjUuMDA0NjUxLTIuMDgzNzIxIi8+PHBhdGggZmlsbD0iIzgxYjBjNCIgZD0ibTEzMS4xNzUxOTQgMjI3LjMyNDAzMWMyLjA4MzcyMS05LjAyOTQ1NyAxMC4zMTkzOC0xMy43OTIyNDggMTcuNzYxMjQtMTguNzUzNDg4IDcuNjQwMzEgOS43MjQwMzEgMTIuMzAzODc2IDIyLjIyNjM1NiAxNy40NjM1NjYgMzQuMzMxNzgzLTEyLjIwNDY1MS0zLjY3MTMxOC0yNC42MDc3NTItOS41MjU1ODItMzUuMjI0ODA2LTE1LjU3ODI5NSIvPjxwYXRoIGZpbGw9IiMyMzFmMjAiIGQ9Im0xNzMuODQxODYgMjk5LjY1ODkxNWMtLjI5NzY3NCA3LjQ0MTg2LjY5NDU3NCAxOS4yNDk2MTIgMS4wOTE0NzMgMjcuMDg4MzcyIDQuOTYxMjQxIDAgNy4wNDQ5NjItMS4wOTE0NzMgMTAuNzE2Mjc5LTIuMjgyMTcxLjM5NjktOS4xMjg2ODItMi44Nzc1MTktMTcuNTYyNzktMy44Njk3NjctMjUuODk3Njc0LTEuOTg0NDk2LS42OTQ1NzQtNS41NTY1ODkgMS4xOTA2OTgtNy45Mzc5ODUgMS4wOTE0NzN6bS03Ni42MDE1NDk5LTQyLjA3MTMxOGMzLjI3NDQxODkgMjkuODY2NjY3IDcuOTM3OTg0OSA1NC44NzEzMTggMTYuNTcwNTQyOSA4MS4zNjQzNDEgMTkuMTUwMzg3IDUuODU0MjY0IDQyLjE3MDU0MiA2LjM1MDM4OCA1OS4xMzc5ODQgMS4wOTE0NzMtMy4wNzU5NjktMTQuODgzNzIxLTEuNzg2MDQ2LTMzLjA0MTg2MS0zLjU3MjA5My00OS4wMTcwNTQtMS4zODkxNDctMTIuMDA2MjAyLS42OTQ1NzMtMjQuMDEyNDA0LTIuNTc5ODQ1LTM2LjIxNzA1NS0yMC41Mzk1MzUtNC4yNjY2NjYtNDkuNTEzMTc4LS45OTIyNDgtNjkuNTU2NTg4OSAyLjc3ODI5NXptNzQuNDE4NjA0OS0yLjU3OTg0NWMtLjE5ODQ1IDEyLjguNTk1MzQ5IDI1LjUwMDc3NSAxLjU4NzU5NyAzOC4zMDA3NzUgNC45NjEyNC0uNjk0NTc0IDguMjM1NjU5LTEuMTkwNjk4IDEyLjgtMi4yODIxNy0xLjQ4ODM3Mi0xMi4zMDM4NzYtMS4yODk5MjMtMjYuMjk0NTc0LTQuMzY1ODkyLTM3LjIwOTMwMy0zLjQ3Mjg2OC4wOTkyMjUtNi41NDg4MzcgMC0xMC4wMjE3MDUgMS4xOTA2OTh6bTI0LjkwNTQyNi0yLjA4MzcyMWMtMi4zODEzOTUtLjQ5NjEyNC01LjA2MDQ2NSAwLTcuMjQzNDExIDAgMS4wOTE0NzMgMTAuNDE4NjA1IDMuNTcyMDkzIDIxLjkyODY4MiA0LjQ2NTExNyAzMi45NDI2MzYgMy40NzI4NjguMDk5MjI0IDUuMzU4MTM5LTEuNTg3NTk3IDguMjM1NjU4LTIuMDgzNzIxLjE5ODQ1LTkuNjI0ODA2LS43OTM3OTgtMjIuOTIwOTMtNS40NTczNjQtMzAuODU4OTE1em0zNy44MDQ2NTEgMzQuNTMwMjMzYzcuMzQyNjM2LTEuNzg2MDQ3IDExLjkwNjk3Ny0xMC43MTYyOCA5LjgyMzI1Ni0xOS45NDQxODYtMS4zODkxNDctNi4xNTE5MzgtMy43NzA1NDMtMTcuODYwNDY2LTYuNDQ5NjEyLTIxLjgyOTQ1OC0xLjg4NTI3Mi0yLjg3NzUxOS03LjE0NDE4Ni02Ljc0NzI4Ny0xMS40MTA4NTMtNC4wNjgyMTctNi44NDY1MTIgNC4zNjU4OTItMTguODUyNzEzIDUuNjU1ODE0LTIzLjgxMzk1NCAxMC45MTQ3MjkgMi40ODA2MjEgOC4zMzQ4ODQgMy4yNzQ0MTkgMTkuNjQ2NTExIDQuMjY2NjY3IDMwLjE2NDM0MSA4LjUzMzMzMy40OTYxMjQgMTguOTUxOTM4LTIuMzgxMzk1IDI2LjA5NjEyNC42OTQ1NzQtNC45NjEyNCAxLjU4NzU5Ni0xMS4zMTE2MjggMS41ODc1OTYtMTUuNTc4Mjk0IDMuOTY4OTkyIDMuNTcyMDkzIDEuNjg2ODIxIDExLjcwODUyNyAxLjM4OTE0NyAxNy4wNjY2NjYuMDk5MjI1em0tNjguMDY4MjE3LTQ0LjU1MTkzOGMtNS4xNTk2OS0xMi4xMDU0MjctOS44MjMyNTYtMjQuNjA3NzUyLTE3LjQ2MzU2Ni0zNC4zMzE3ODMtNy40NDE4NiA0Ljk2MTI0LTE1LjU3ODI5NCA5LjcyNDAzMS0xNy43NjEyNCAxOC43NTM0ODggMTAuNzE2Mjc5IDYuMDUyNzEzIDIzLjExOTM4IDExLjkwNjk3NyAzNS4yMjQ4MDYgMTUuNTc4Mjk1em0xMi43MDA3NzUtMzcuNDA3NzUyYy0uNDk2MTI0IDEyLjEwNTQyNi0xLjg4NTI3MSAyNy45ODEzOTUtNS4wNjA0NjUgMzcuNDA3NzUyIDcuNjQwMzEtOS44MjMyNTYgMTMuODkxNDczLTIxLjEzNDg4NCAyMC4zNDEwODYtMzIuMjQ4MDYyLTIuNzc4Mjk1LTQuNDY1MTE3LTguNTMzMzM0LTguMzM0ODg0LTE1LjI4MDYyMS01LjE1OTY5em0tMTQuMzg3NTk3LTUuMDYwNDY1Yy0yLjg3NzUxOS0uMjk3Njc1LTUuMzU4MTM5IDMuMzczNjQzLTkuMTI4NjgyIDEuNzg2MDQ2LS44OTMwMjMuOTkyMjQ4LTEuNjg2ODIxIDEuOTg0NDk2LTIuNTc5ODQ1IDIuOTc2NzQ0IDguMzM0ODg0IDEwLjEyMDkzIDEyLjIwNDY1MiAyNC40MDkzMDMgMTguNjU0MjY0IDM2LjIxNzA1NCAzLjQ3Mjg2OC0xMS40MTA4NTIgMy4wNzU5NjktMjMuODEzOTUzIDMuODY5NzY3LTM2LjIxNzA1NC00Ljc2Mjc5LjE5ODQ1LTcuNDQxODYtNC40NjUxMTYtMTAuODE1NTA0LTQuNzYyNzl6bS05LjIyNzkwNi0xMi4yMDQ2NTJjLS4yOTc2NzUgMy40NzI4NjkuNDk2MTI0IDQuNTY0MzQxIDEuMTkwNjk3IDguNTMzMzM0IDExLjMxMTYyOCAzLjU3MjA5MyA5LjQyNjM1Ny0xNS41NzgyOTUtMS4xOTA2OTctOC41MzMzMzR6bS0xMi42MDE1NTEtNC4xNjc0NDFjLTQuODYyMDE1LTIuNjc5MDctMTIuMjA0NjUxLTUuNTU2NTktMTguNTU1MDM5LTYuNzQ3Mjg3LTcuODM4NzU5LTEuNDg4MzcyLTcuMDQ0OTYxIDEwLjcxNjI3OS02Ljc0NzI4NiAxNy45NTk2OS4yOTc2NzQgNS43NTUwMzggMy4yNzQ0MTggMTEuODA3NzUyIDQuNTY0MzQxIDE1LjY3NzUxOS41OTUzNDggMS43ODYwNDYuNzkzNzk4IDMuNjcxMzE4IDIuMjgyMTcgNC4wNjgyMTcgMi42NzkwNy41OTUzNDkgMTEuNjA5MzAyLTIuODc3NTE5IDE0LjA4OTkyMy00LjI2NjY2NyA1LjM1ODEzOS0yLjg3NzUxOSA5LjUyNTU4MS03LjU0MTA4NSAxNC4wODk5MjItMTAuNzE2Mjc5LjA5OTIyNS0xLjQ4ODM3Mi4wOTkyMjUtMy4wNzU5NjkuMTk4NDUtNC41NjQzNDEtMi43NzgyOTUtMS4zODkxNDctNS44NTQyNjQtMi4yODIxNy05LjkyMjQ4MS0yLjQ4MDYyIDIuNjc5MDctMS4zODkxNDcgNi43NDcyODctMS4zODkxNDcgOS4yMjc5MDctMi45NzY3NDQgMC0uNTk1MzQ5IDAtMS4xOTA2OTguMDk5MjI1LTEuNzg2MDQ3LTQuNTY0MzQxLS40OTYxMjQtNi4yNTExNjMtMi40ODA2Mi05LjMyNzEzMi00LjE2NzQ0MXptLTQ2LjYzNTY1ODgtOC40MzQxMDljLTQuMDY4MjE3IDQuMTY3NDQyIDExLjQxMDg1MjggOS43MjQwMzEgMTYuMjcyODY3OCAxMC4wMjE3MDUgMC0yLjU3OTg0NSAxLjQ4ODM3My01LjA2MDQ2NSAxLjE5MDY5OC02Ljk0NTczNi01Ljg1NDI2My0uOTkyMjQ4LTEzLjQ5NDU3NC0uMjk3Njc0LTE3LjQ2MzU2NTgtMy4wNzU5Njl6bTUwLjAwOTMwMjggMS44ODUyNzFjMCAuMzk2OS0uNDk2MTI0LjI5NzY3NS0uNTk1MzQ5LjU5NTM0OSA1LjI1ODkxNCA0LjA2ODIxNyA5LjEyODY4MiA0Ljk2MTI0IDE2LjE3MzY0MyA0LjU2NDM0MSAzLjE3NTE5NC0yLjI4MjE3IDYuMDUyNzEzLTUuMDYwNDY1IDkuNDI2MzU3LTcuMjQzNDExLTcuNzM5NTM1LjY5NDU3NC0xNy40NjM1NjYgNS40NTczNjUtMjUuMDA0NjUxIDIuMDgzNzIxem00NS44NDE4NiAxMy44OTE0NzNjLS4xOTg0NS00LjU2NDM0MS0xLjM4OTE0Ny0xMy45OTA2OTgtNC4yNjY2NjctMTUuNjc3NTE5LTUuOTUzNDg4LTMuNDcyODY4LTE2LjQ3MTMxNyA3LjA0NDk2MS0yMC45MzY0MzQgOC42MzI1NTguNDk2MTI0IDEuMzg5MTQ3IDEuMjg5OTIzIDIuNDgwNjIgMS4zODkxNDggNC4yNjY2NjcgMi42NzkwNjktLjY5NDU3NCA1Ljg1NDI2My0uMTk4NDUgOC4xMzY0MzQuODkzMDIzLTIuNjc5MDcuMjk3Njc0LTUuNTU2NTkuMjk3Njc0LTcuMzQyNjM2IDEuNTg3NTk3LS41OTUzNDkgMS44ODUyNzEuMTk4NDUgNC4zNjU4OTEtLjI5NzY3NCA2Ljk0NTczNiA2LjI1MTE2MiAxLjc4NjA0NyAxMy40OTQ1NzMgMi42NzkwNyAyMS40MzI1NTggMi45NzY3NDQgMS40ODgzNzItMS45ODQ0OTYgMi4wODM3MjEtNS43NTUwMzggMS44ODUyNzEtOS42MjQ4MDZ6bS0xMDIuNjk3Njc0NC0xMS44MDc3NTJjLTEuMjg5OTIyNS0uODkzMDIzLTkuOTIyNDgwNi0xMi4xMDU0MjYtMTEuMTEzMTc4My0xMS42MDkzMDItMTUuNTc4Mjk0NiA2LjE1MTkzOC0zMC4xNjQzNDExIDE2Ljc2ODk5Mi00My4xNjI3OTA3IDI2Ljg4OTkyMiAxMi40MDMxMDA4IDI2LjY5MTQ3MyAxNy40NjM1NjU5IDU5LjMzNjQzNCAxOC4zNTY1ODkxIDkwLjc5MDY5OCAxNC4xODkxNDczIDYuNjQ4MDYyIDI2LjY5MTQ3MjkgMTYuMjcyODY4IDQ2LjA0MDMxMDEgMTcuMjY1MTE2LTIuMjgyMTcwNS0xNS43NzY3NDQtNC4yNjY2NjY3LTI5Ljk2NTg5MS01LjU1NjU4OTEtNDQuODQ5NjEyLTQuODYyMDE1NS0yLjA4MzcyMS0xMS44MDc3NTIuMDk5MjI1LTE2LjM3MjA5MzEtLjU5NTM0OSAwLTUuNDU3MzY0IDYuOTQ1NzM2NS0yLjM4MTM5NSA3LjU0MTA4NTMtNi4wNTI3MTMuMzk2ODk5Mi0yLjc3ODI5NS0zLjg2OTc2NzQtMi45NzY3NDQtMi40ODA2MjAxLTcuMzQyNjM2IDMuNTcyMDkzIDEuMjg5OTIzIDUuNDU3MzY0MyA0LjE2NzQ0MiA5LjIyNzkwNjkgNS4yNTg5MTUgMy40NzI4NjgzLTcuNTQxMDg1IDAtMjAuOTM2NDM0LjQ5NjEyNDEtMjcuMjg2ODIyLjA5OTIyNDgtMS4xOTA2OTcuNTk1MzQ4OC02LjU0ODgzNyAzLjI3NDQxODYtNS42NTU4MTQgMi4zODEzOTUzLjc5Mzc5OS0uMDk5MjI0OCAxNC4zODc1OTcuMDk5MjI0OCAyMC4zNDEwODYuMTk4NDQ5NiA1LjU1NjU4OS0uNjk0NTczNyAxMC44MTU1MDMgMS41ODc1OTY5IDE0LjI4ODM3MiAxOC42NTQyNjM5LTIuNTc5ODQ1IDM3LjYwNjIwMTktNC4xNjc0NDIgNTcuODQ4MDYxOS00Ljc2Mjc5MS00LjQ2NTExNi0xLjg4NTI3MS05LjcyNDAzMS0zLjY3MTMxOC0xNS40NzkwNy02Ljk0NTczNi0zLjE3NTE5My0xLjc4NjA0Ny0xMi45OTg0NDktNS40NTczNjUtMTMuODkxNDczLTguNDM0MTA5LTEuNDg4MzcyLTQuNzYyNzkxIDMuNzcwNTQzLTcuMjQzNDExIDQuNjYzNTY2LTExLjMxMTYyOC05LjQyNjM1NiA1LjE1OTY5LTExLjIxMjQwMy00Ljk2MTI0LTEzLjQ5NDU3My0xMi4wMDYyMDEtMS45ODQ0OTYtNi40NDk2MTMtMy4xNzUxOTQtMTEuMzExNjI4LTMuNjcxMzE4LTE0Ljk4Mjk0Ni04LjIzNTY1OS00LjE2NzQ0Mi0xNi45Njc0NDItOC4wMzcyMDktMjMuOTEzMTc4NC0xMi45OTg0NXptOTQuNDYyMDE1NC0xMC4zMTkzOGMxMi45OTg0NS02LjI1MTE2MiAxNS4zNzk4NDUgMjMuNTE2Mjc5IDEwLjIyMDE1NSAzMy4xNDEwODYuNzkzNzk5IDIuODc3NTE5IDMuNDcyODY4IDMuOTY4OTkyIDQuNTY0MzQxIDYuNTQ4ODM3LTcuMjQzNDExIDEyLjk5ODQ0OS0xNS4yODA2MiAyNS4xMDM4NzYtMjIuNzIyNDggMzcuOTAzODc2IDUuNDU3MzY0LTMuNDcyODY4IDEzLjM5NTM0OC0uNTk1MzQ5IDE5Ljg0NDk2MS0zLjE3NTE5NCAyLjM4MTM5NS0uODkzMDIzIDQuMDY4MjE3LTYuMzUwMzg4IDUuODU0MjYzLTEwLjcxNjI3OSA0Ljk2MTI0MS0xMS45MDY5NzcgMTAuMTIwOTMxLTI2Ljk4OTE0NyAxMi40MDMxMDEtMzguMzAwNzc1LjQ5NjEyNC0yLjU3OTg0NSAxLjk4NDQ5Ni04LjIzNTY1OSAxLjU4NzU5Ny0xMC41MTc4My0uNTk1MzQ5LTQuMTY3NDQyLTYuMTUxOTM4LTcuMjQzNDExLTkuMDI5NDU3LTkuNzI0MDMxLTUuMjU4OTE1LTQuNzYyNzktOC41MzMzMzQtOC44MzEwMDctMTQuMDg5OTIzLTEzLjI5NjEyNC0yLjA4MzcyMSAzLjI3NDQxOS02Ljg0NjUxMSA1LjQ1NzM2NS04LjYzMjU1OCA4LjEzNjQzNHptLTEyNC4xMzAyMzI1LTExNS4xOTk5OTk2Yy02LjE1MTkzOCA2Ljg0NjUxMTYtNC44NjIwMTU1IDE5LjU0NzI4NjgtNC4xNjc0NDE4IDI4LjY3NTk2OSAxMS4yMTI0MDMxLTcuMDQ0OTYxMyAyNS45OTY4OTkyLjU5NTM0ODggMjUuODk3Njc0NCAxMi41MDIzMjU2IDUuMzU4MTM5NS0uMDk5MjI0OSAxLjk4NDQ5NjEtNi42NDgwNjIxLjk5MjI0OC0xMC45MTQ3Mjg3LTMuMTc1MTkzOC0xMy43OTIyNDgxIDUuMzU4MTM5Ni0yOC42NzU5NjkuMzk2ODk5My00MS4yNzc1MTk0LTkuNjI0ODA2Mi43OTM3OTg0LTE3LjQ2MzU2NTkgNC42NjM1NjU5LTIzLjExOTM3OTkgMTEuMDEzOTUzNXptNDQuMjU0MjYzNS0zOS41OTA2OTc3Yy0xMy45OTA2OTc2IDMuOTY4OTkyMy0zMS45NTAzODc1IDE0LjE4OTE0NzMtMzcuNzA1NDI2MyAyNi43OTA2OTc3IDQuNDY1MTE2My0uNjk0NTczNyA3LjU0MTA4NTMtMi44Nzc1MTk0IDExLjkwNjk3NjgtMy4xNzUxOTM4IDEuNjg2ODIxNy0uMDk5MjI0OCAzLjg2OTc2NzQuNjk0NTczNiA1Ljc1NTAzODcuMTk4NDQ5NiAzLjc3MDU0MjctLjk5MjI0ODEgNy4wNDQ5NjEzLTkuNTI1NTgxNCA5LjkyMjQ4MDctMTIuNzAwNzc1MiAyLjc3ODI5NDUtMy4wNzU5NjkgNi4xNTE5Mzc5LTQuNDY1MTE2MyA4LjQzNDEwODEtNy4yNDM0MTA5IDEuNDg4MzcyLS42OTQ1NzM2IDMuNjcxMzE4LS42OTQ1NzM2IDMuNzcwNTQzLTIuODc3NTE5My0uNTk1MzQ5LS42OTQ1NzM3LTEuMjg5OTIyLTEuMTkwNjk3Ny0yLjA4MzcyMS0uOTkyMjQ4MXptNzIuOTMwMjMzIDMuNzcwNTQyNmMtMTQuNTg2MDQ3LTguMjM1NjU4OS0zOS4xOTM3OTktMTQuMzg3NTk2ODYtNTQuNjcyODY5LTYuNjQ4MDYyLTEyLjUwMjMyNSA2LjI1MTE2MjgtMjkuMzcwNTQyMiAxNi41NzA1NDI3LTM1LjEyNTU4MSAyOS41Njg5OTIzIDUuMzU4MTM5NiAxMi42MDE1NTA0LTEuNTg3NTk2OSAyNC4xMTE2Mjc5LTIuMDgzNzIwOSAzNi45MTE2Mjc5LS4xOTg0NDk2IDYuODQ2NTExNiAzLjE3NTE5MzggMTIuNzAwNzc1MiAzLjQ3Mjg2ODIgMjAuMTQyNjM1Ni0xLjg4NTI3MTMgMy4wNzU5Njg5LTcuNDQxODYwNCAzLjM3MzY0MzktMTEuMzExNjI3OSAzLjE3NTE5MzktMS4yODk5MjI1LTYuNTQ4ODM3My0zLjU3MjA5My0xMy44OTE0NzI5LTEwLjMxOTM3OTgtMTQuNjg1MjcxNC05LjUyNTU4MTQtMS4wOTE0NzI4LTE2LjU3MDU0MjcgNi44NDY1MTE2LTE2Ljk2NzQ0MTkgMTUuMDgyMTcwNC0uNDk2MTI0IDkuNzI0MDMxIDcuNDQxODYwNSAyNS43OTg0NSAxOC43NTM0ODg0IDI0LjcwNjk3NyA0LjM2NTg5MTUtLjM5Njg5OSA1LjQ1NzM2NDMtNC43NjI3OTEgMTAuMjIwMTU1LTQuNzYyNzkxIDIuNTc5ODQ1IDUuMTU5NjktMy45Njg5OTIyIDYuNzQ3Mjg3LTQuNjYzNTY1OSAxMC40MTg2MDUtLjE5ODQ0OTYuOTkyMjQ4LjQ5NjEyNDEgNC42NjM1NjYuOTkyMjQ4MSA2LjQ0OTYxMiAyLjA4MzcyMDkgOC40MzQxMDkgNi42NDgwNjIgMTkuNDQ4MDYyIDExLjExMzE3ODMgMjUuODk3Njc1IDUuNzU1MDM4NyA4LjIzNTY1OSAxNi45Njc0NDE0IDkuNDI2MzU2IDI5LjA3Mjg2ODQgMTAuMjIwMTU1IDIuMTgyOTQ2LTQuNjYzNTY2IDEwLjEyMDkzLTQuMjY2NjY3IDE1LjI4MDYyLTMuMDc1OTY5LTYuMjUxMTYzLTIuNDgwNjItMTIuMDA2MjAyLTguNDM0MTA5LTE2Ljc2ODk5Mi0xMy42OTMwMjQtNS40NTczNjUtNi4wNTI3MTMtMTEuMDEzOTU0LTEyLjUwMjMyNS0xMS4zMTE2MjgtMjAuNDQwMzEgMTAuNDE4NjA0IDE0LjM4NzU5NyAxOC45NTE5MzggMjYuOTg5MTQ4IDM3LjgwNDY1MSAzMy4zMzk1MzUgMTQuMjg4MzcyIDQuNzYyNzkxIDMwLjk1ODE0LTIuMTgyOTQ1IDQxLjk3MjA5My05LjkyMjQ4IDQuNTY0MzQxLTMuMTc1MTk0IDcuMjQzNDExLTguMzM0ODg0IDEwLjUxNzgyOS0xMi44OTkyMjUgMTIuMTA1NDI3LTE3LjQ2MzU2NiAxNy43NjEyNDEtNDIuMjY5NzY4IDE2LjU3MDU0My02Ni4zODEzOTU1LS40OTYxMjQtOS45MjI0ODA2LS40OTYxMjQtMTkuODQ0OTYxMi0zLjg2OTc2Ny0yNi40OTMwMjMzLTMuNDcyODY5LTYuOTQ1NzM2NC0xNS4yODA2MjEtMTMuMjk2MTI0LTIyLjIyNjM1Ny02Ljk0NTczNjQtMS4yODk5MjItNi44NDY1MTE2IDUuNzU1MDM5LTExLjAxMzk1MzUgMTMuOTkwNjk4LTguNTMzMzMzMy01Ljg1NDI2NC03LjY0MDMxMDEtMTIuMDA2MjAyLTE2LjY2OTc2NzUtMjAuNDQwMzEtMjEuNDMyNTU4MnptMjcuMTg3NTk3IDIyNC4zNDcyODY3YzExLjQxMDg1Mi01LjY1NTgxNCAzMi42NDQ5NjEtMTUuMTgxMzk1IDM5LjY4OTkyMiAwIDIuNjc5MDcgNS42NTU4MTQgNS43NTUwMzkgMTUuMDgyMTcxIDcuMDQ0OTYxIDIwLjkzNjQzNCAxLjg4NTI3MiA4LjEzNjQzNC0yLjA4MzcyMSAyNS40MDE1NTEtMTAuNTE3ODI5IDI4LjA4MDYyLTcuNDQxODYxIDIuMzgxMzk2LTE2LjA3NDQxOSAyLjI4MjE3MS0yNS4wMDQ2NTEuNDk2MTI0LTEuMDkxNDczLS44OTMwMjMtMi4xODI5NDYtMi4zODEzOTUtMy4wNzU5NjktMy45Njg5OTItNi4zNTAzODgtLjE5ODQ0OS0xMi40MDMxMDEuMjk3Njc1LTE3LjM2NDM0MSAyLjk3Njc0NC40OTYxMjQgNC43NjI3OTEtMi42NzkwNyA1LjQ1NzM2NS01Ljc1NTAzOSA2LjQ0OTYxMy0yLjE4Mjk0NiA4LjgzMTAwOCA0LjQ2NTExNiAyMC4zNDEwODUgMi44Nzc1MTkgMjguMjc5MDctMS4wOTE0NzMgNS43NTUwMzgtOC4xMzY0MzQgNi42NDgwNjItMTMuMjk2MTI0IDcuNjQwMzEtLjE5ODQ0OSAzLjE3NTE5My4xOTg0NSA1Ljg1NDI2My41OTUzNDkgOC41MzMzMzMtMS4xOTA2OTggNC4zNjU4OTEtNi40NDk2MTIgNi44NDY1MTItMTEuNTEwMDc4IDcuNDQxODYtMTYuNTcwNTQyIDEuOTg0NDk3LTQxLjY3NDQxOCAyLjg3NzUyLTU3LjU1MDM4Ny0yLjg3NzUxOS00LjQ2NTExNi0xMC45MTQ3MjktNy45Mzc5ODUtMjQuMTExNjI4LTExLjYwOTMwMjQtMzYuNTE0NzI5LTE1LjQ3OTA2OTggMS42ODY4MjItMjguMDgwNjIwMi02LjY0ODA2Mi0zOS44ODgzNzIxLTEyLjIwNDY1MS00LjA2ODIxNzEtMS44ODUyNzEtOS43MjQwMzEtMi45NzY3NDQtMTEuMzExNjI3OS02LjI1MTE2My0xLjQ4ODM3MjEtMy4xNzUxOTMtLjg5MzAyMzMtOS4yMjc5MDctMS4yODk5MjI1LTE0Ljg4MzcyMS0uODkzMDIzMy0xNC41ODYwNDYtMS43ODYwNDY1LTI4LjY3NTk2OC01LjU1NjU4OTItNDMuNTU5Njg5LTEuNjg2ODIxNy02Ljc0NzI4Ny00Ljc2Mjc5MDctMTIuNjAxNTUxLTYuODQ2NTExNi0xOS4wNTExNjMtMS45ODQ0OTYxLTUuOTUzNDg5LTUuMzU4MTM5NS0xMy4zOTUzNDktNi4yNTExNjI4LTE5LjM0ODgzNy0xLjI4OTkyMjUtOC44MzEwMDggNy4wNDQ5NjEzLTkuMzI3MTMyIDEyLjMwMzg3Ni0xMy4xOTY5IDguMjM1NjU4OS01Ljk1MzQ4OCAxNC42ODUyNzEzLTkuMjI3OTA3IDIzLjYxNTUwMzktMTQuNTg2MDQ2IDIuNjc5MDY5Ny0xLjU4NzU5NyAxMC42MTcwNTQyLTUuNTU2NTg5IDExLjUxMDA3NzUtNy40NDE4NjEgMS43ODYwNDY1LTMuNjcxMzE3LTMuMDc1OTY5LTguODMxMDA3LTQuMzY1ODkxNS0xMS43MDg1MjctMi4wODM3MjA5LTQuNTY0MzQxLTMuMTc1MTkzOC04LjQzNDEwOC0zLjQ3Mjg2ODItMTIuODk5MjI1LTcuNDQxODYwNS0xLjE5MDY5Ny0xMy4xOTY4OTkyLTUuNjU1ODE0LTE2LjU3MDU0MjYtMTAuNjE3MDU0LTUuNjU1ODE0LTguMzM0ODg0LTkuNjI0ODA2My0yMy43MTQ3MjktNC42NjM1NjU5LTM1LjMyNDAzMDguMzk2ODk5Mi0uODkzMDIzMyAyLjI4MjE3MDUtMi43NzgyOTQ2IDIuNTc5ODQ0OS00LjE2NzQ0MTkuNTk1MzQ4OS0yLjc3ODI5NDYtMS4wOTE0NzI4LTYuNDQ5NjEyNC0xLjE5MDY5NzctOS40MjYzNTY2LS40OTYxMjQtMTUuMTgxMzk1MyAyLjU3OTg0NS0yOC4yNzkwNjk4IDEyLjgtMzIuODQzNDEwOCA0LjE2NzQ0MTktMTYuNTcwNTQyNyAxOS4wNTExNjI4LTIyLjAyNzkwNyAzMy4wNDE4NjA1LTMwLjI2MzU2NTkgNS4yNTg5MTQ3LTMuMDc1OTY5MDIgMTEuMDEzOTUzNi01LjA2MDQ2NTE1IDE2Ljk2NzQ0MTYtNy4yNDM0MTA4OCAyMS4zMzMzMzQtNy44Mzg3NTk2OSA1NC4xNzY3NDQtNi4zNTAzODc2IDcxLjkzNzk4NSA3LjA0NDk2MTI4IDcuNTQxMDg1IDUuNjU1ODEzOSAxOS41NDcyODcgMTcuNjYyMDE1NSAyMy44MTM5NTMgMjYuMzkzNzk4NCAxMS40MTA4NTMgMjIuOTIwOTMwMiAxMC41MTc4MyA2MS4zMjA5MzAyIDIuNTc5ODQ1IDg5LjMwMjMyNTItMS4wOTE0NzMgMy43NzA1NDMtMi41Nzk4NDUgOS4yMjc5MDctNC43NjI3OSAxMy43OTIyNDgtMS40ODgzNzMgMy4xNzUxOTQtNi4xNTE5MzggOS40MjYzNTctNS42NTU4MTQgMTIuMjA0NjUyLjU5NTM0OCAyLjg3NzUxOSAxMC43MTYyNzkgMTAuNTE3ODI5IDEyLjg5OTIyNCAxMi42MDE1NSAzLjg2OTc2OCAzLjc3MDU0MyAxMS4zMTE2MjggOC43MzE3ODMgMTEuOTA2OTc3IDEzLjQ5NDU3NC42OTQ1NzQgNS4wNjA0NjUtMi4xODI5NDYgMTIuMDA2MjAxLTMuNjcxMzE4IDE2Ljg2ODIxNy00Ljc2Mjc5IDE2LjI3Mjg2OC05LjUyNTU4MSAzMS4yNTU4MTQtMTQuOTgyOTQ1IDQ1Ljg0MTg2eiIvPjxwYXRoIGZpbGw9IiNmN2U0Y2QiIGQ9Im0xMjguMDk5MjI1IDEyOS44ODUyNzFjLjU5NTM0OS0uNzkzNzk4IDMuOTY4OTkyLTIuMDgzNzIxIDguNzMxNzgzLjE5ODQ1IDAgMC01LjY1NTgxNC44OTMwMjMtNS4xNTk2OSAxMC4zMTkzOGwtMi4zODEzOTYtLjQ5NjEyNGMuMDk5MjI1LjA5OTIyNS0yLjM4MTM5NS04LjQzNDEwOS0xLjE5MDY5Ny0xMC4wMjE3MDYiLz48cGF0aCBmaWxsPSIjMWQxOTE5IiBkPSJtMTY5LjE3ODI5NSAyMTAuNDU1ODE0YzAgMS4zODkxNDctMS4xOTA2OTggMi41Nzk4NDUtMi41Nzk4NDUgMi41Nzk4NDUtMS4zODkxNDggMC0yLjU3OTg0NS0xLjE5MDY5OC0yLjU3OTg0NS0yLjU3OTg0NXMxLjE5MDY5Ny0yLjU3OTg0NSAyLjU3OTg0NS0yLjU3OTg0NWMxLjQ4ODM3MiAwIDIuNTc5ODQ1IDEuMTkwNjk4IDIuNTc5ODQ1IDIuNTc5ODQ1Ii8+PHBhdGggZmlsbD0iIzFkMTkxOSIgZD0ibTE3MS43NTgxNCAyMjIuNDYyMDE2YzAgMS4zODkxNDctMS4xOTA2OTggMi41Nzk4NDQtMi41Nzk4NDUgMi41Nzk4NDQtMS4zODkxNDggMC0yLjU3OTg0NS0xLjE5MDY5Ny0yLjU3OTg0NS0yLjU3OTg0NCAwLTEuMzg5MTQ4IDEuMTkwNjk3LTIuNTc5ODQ1IDIuNTc5ODQ1LTIuNTc5ODQ1IDEuNDg4MzcyIDAgMi41Nzk4NDUgMS4wOTE0NzIgMi41Nzk4NDUgMi41Nzk4NDUiLz48ZyB0cmFuc2Zvcm09InRyYW5zbGF0ZSguOTkyMjQ4IDM2Ny4xMzE3ODMpIiBmaWxsPSIjMjMxZjIwIj48cGF0aCBkPSJtMzUuNjIxNzA1NCA3LjE0NDE4NjA1Yy0uNzkzNzk4NC4wOTkyMjQ4LTEuNDg4MzcyMS4xOTg0NDk2MS0yLjA4MzcyMDkuMjk3Njc0NDItLjU5NTM0ODguMDk5MjI0OC0xLjE5MDY5NzcuMTk4NDQ5NjEtMS45ODQ0OTYxLjM5Njg5OTIyLS44OTMwMjMzLjE5ODQ0OTYxLTEuMzg5MTQ3My41OTUzNDg4NC0xLjU4NzU5NjkgMS4xOTA2OTc2Ny0uMTk4NDQ5Ni41OTUzNDg4NC0uMzk2ODk5MyAxLjE5MDY5NzY0LS4zOTY4OTkzIDEuOTg0NDk2MTR2MjQuMjEwODUyN2MwIDIuMTgyOTQ1Ny0uNDk2MTI0IDQuMjY2NjY2Ny0xLjM4OTE0NzIgNi4xNTE5MzgtLjg5MzAyMzMgMS44ODUyNzEzLTIuMDgzNzIxIDMuMzczNjQzNC0zLjY3MTMxNzkgNC42NjM1NjU5LTEuNTg3NTk2OSAxLjE5MDY5NzctMy4zNzM2NDM0IDIuMTgyOTQ1Ny01LjM1ODEzOTUgMi43NzgyOTQ2LTEuOTg0NDk2MS41OTUzNDg4LTQuMDY4MjE3MS45OTIyNDgtNi4yNTExNjI4Ljk5MjI0OC0zLjg2OTc2NzQ0IDAtNi45NDU3MzY0My0uODkzMDIzMi05LjMyNzEzMTc4LTIuNzc4Mjk0Ni0yLjM4MTM5NTM1LTEuODg1MjcxMy0zLjU3MjA5MzAyLTQuMzY1ODkxNC0zLjU3MjA5MzAyLTcuNjQwMzEgMC0xLjg4NTI3MTQuNDk2MTI0MDMtMy40NzI4NjgzIDEuNTg3NTk2OS00Ljc2Mjc5MDcgMS4wOTE0NzI4Ny0xLjI4OTkyMjUgMi41Nzk4NDQ5Ni0xLjg4NTI3MTQgNC40NjUxMTYyOC0xLjg4NTI3MTQgMS43ODYwNDY1MSAwIDMuMTc1MTkzOC40OTYxMjQxIDQuMjY2NjY2NjIgMS41ODc1OTY5IDEuMDkxNDcyOSAxLjA5MTQ3MjkgMS41ODc1OTY5IDIuMzgxMzk1NCAxLjU4NzU5NjkgMy44Njk3Njc1IDAgMS4yODk5MjI1LS40OTYxMjQgMi41Nzk4NDQ5LTEuMzg5MTQ3MiAzLjY3MTMxNzgtLjg5MzAyMzMgMS4wOTE0NzI5LTEuOTg0NDk2MTcgMi4xODI5NDU4LTMuMTc1MTkzODQgMy4wNzU5Njl2LjM5Njg5OTJjLjE5ODQ0OTYxLjM5Njg5OTMuNTk1MzQ4ODQuNzkzNzk4NSAxLjE5MDY5NzY3IDEuMDkxNDcyOS41OTUzNDg4NC4yOTc2NzQ0IDEuMjg5OTIyNDguMzk2ODk5MiAxLjg4NTI3MTM3LjM5Njg5OTIgMi40ODA2MjAxIDAgNC40NjUxMTYyLS44OTMwMjMyIDUuODU0MjYzNS0yLjY3OTA2OTcgMS4zODkxNDczLTEuNzg2MDQ2NiAyLjA4MzcyMDktNC40NjUxMTYzIDIuMDgzNzIwOS04LjAzNzIwOTN2LTI0LjgwNjIwMTZjMC0uNjk0NTczNi0uMDk5MjI0OC0xLjM4OTE0NzI4LS4yOTc2NzQ0LTEuODg1MjcxMzFzLS43OTM3OTg0LS44OTMwMjMyNi0xLjY4NjgyMTctMS4yODk5MjI0OGMtLjU5NTM0ODgtLjI5NzY3NDQyLTEuMzg5MTQ3My0uNDk2MTI0MDMtMi4yODIxNzA1LS42OTQ1NzM2NC0uODkzMDIzMy0uMTk4NDQ5NjItMS41ODc1OTY5LS4yOTc2NzQ0Mi0yLjE4Mjk0NTgtLjM5Njg5OTIzdi0yLjM4MTM5NTM1aDIzLjQxNzA1NDN2Mi40ODA2MjAxNnoiLz48cGF0aCBkPSJtNzIuMzM0ODgzNyA0MS4yNzc1MTk0Yy0uNjk0NTczNiAxLjE5MDY5NzctMS41ODc1OTY5IDIuMjgyMTcwNS0yLjU3OTg0NDkgMy4zNzM2NDM0LS45OTIyNDgxIDEuMDkxNDcyOS0yLjE4Mjk0NTggMS44ODUyNzEzLTMuNDcyODY4MyAyLjY3OTA2OTgtMS4zODkxNDcyLjc5Mzc5ODQtMi43NzgyOTQ1IDEuMzg5MTQ3Mi00LjE2NzQ0MTggMS43ODYwNDY1LTEuMzg5MTQ3My4zOTY4OTkyLTMuMDc1OTY5LjU5NTM0ODgtNC44NjIwMTU1LjU5NTM0ODgtMy4wNzU5NjkgMC01LjY1NTgxNC0uMzk2ODk5Mi03LjkzNzk4NDUtMS4yODk5MjI1LTIuMTgyOTQ1OC0uODkzMDIzMi00LjA2ODIxNzEtMS45ODQ0OTYxLTUuNDU3MzY0NC0zLjQ3Mjg2ODItMS40ODgzNzIxLTEuNDg4MzcyMS0yLjQ4MDYyMDEtMy4xNzUxOTM4LTMuMjc0NDE4Ni01LjE1OTY4OTktLjY5NDU3MzYtMS45ODQ0OTYxLTEuMDkxNDcyOC00LjE2NzQ0MTktMS4wOTE0NzI4LTYuNDQ5NjEyNCAwLTIuMDgzNzIwOS4zOTY4OTkyLTQuMTY3NDQxOSAxLjE5MDY5NzYtNi4wNTI3MTMyLjc5Mzc5ODUtMS44ODUyNzEzIDEuODg1MjcxNC0zLjY3MTMxNzggMy4yNzQ0MTg2LTUuMTU5Njg5OSAxLjM4OTE0NzMtMS40ODgzNzIxIDMuMTc1MTkzOC0yLjY3OTA2OTggNS4zNTgxMzk2LTMuNTcyMDkzIDIuMTgyOTQ1Ny0uODkzMDIzMyA0LjU2NDM0MTEtMS4zODkxNDczIDcuMTQ0MTg2LTEuMzg5MTQ3MyAyLjg3NzUxOTQgMCA1LjI1ODkxNDguMzk2ODk5MiA3LjE0NDE4NjEgMS4wOTE0NzI4IDEuODg1MjcxMy42OTQ1NzM3IDMuMzczNjQzNCAxLjY4NjgyMTcgNC41NjQzNDExIDIuODc3NTE5NCAxLjE5MDY5NzYgMS4xOTA2OTc3IDEuOTg0NDk2MSAyLjU3OTg0NSAyLjU3OTg0NDkgNC4xNjc0NDE5LjQ5NjEyNDEgMS41ODc1OTY5Ljc5Mzc5ODUgMy4yNzQ0MTg2Ljc5Mzc5ODUgNS4wNjA0NjUxdjEuOTg0NDk2MWgtMjAuOTM2NDM0MWMwIDQuMjY2NjY2Ny43OTM3OTg0IDcuNDQxODYwNSAyLjQ4MDYyMDEgOS42MjQ4MDYyIDEuNTg3NTk2OSAyLjE4Mjk0NTggNC4yNjY2NjY3IDMuMjc0NDE4NiA3LjczOTUzNDkgMy4yNzQ0MTg2IDEuOTg0NDk2MSAwIDMuNjcxMzE3OC0uNDk2MTI0IDUuMjU4OTE0Ny0xLjU4NzU5NjkgMS41ODc1OTY5LTEuMDkxNDcyOCAyLjg3NzUxOTQtMi4zODEzOTUzIDMuOTY4OTkyMy00LjA2ODIxN3ptLTExLjgwNzc1MTktMTEuODA3NzUyYzAtMS4xOTA2OTc2LS4wOTkyMjQ4LTIuNDgwNjIwMS0uMTk4NDQ5Ni0zLjc3MDU0MjZzLS4yOTc2NzQ0LTIuMzgxMzk1My0uNjk0NTczNy0zLjE3NTE5MzhjLS4zOTY4OTkyLS45OTIyNDgxLS43OTM3OTg0LTEuNjg2ODIxNy0xLjQ4ODM3MjEtMi4xODI5NDU3LS41OTUzNDg4LS40OTYxMjQxLTEuMzg5MTQ3My0uNjk0NTczNy0yLjI4MjE3MDUtLjY5NDU3MzctMS41ODc1OTY5IDAtMi44Nzc1MTk0Ljc5Mzc5ODUtMy43NzA1NDI2IDIuMzgxMzk1NC0uOTkyMjQ4MSAxLjU4NzU5NjktMS40ODgzNzIxIDQuMTY3NDQxOC0xLjU4NzU5NjkgNy42NDAzMTAxeiIvPjxwYXRoIGQ9Im0xMTYuMDkzMDIzIDQ4LjYyMDE1NWgtMTguNjU0MjYzM3YtMi4yODIxNzA1Yy4zOTY4OTkyIDAgLjg5MzAyMzItLjA5OTIyNDggMS4zODkxNDczLS4xOTg0NDk2LjU5NTM0ODgtLjA5OTIyNDguOTkyMjQ4LS4xOTg0NDk2IDEuMjg5OTIyLS4yOTc2NzQ0LjM5NjktLjE5ODQ0OTYuNjk0NTc0LS41OTUzNDg5Ljg5MzAyNC0uOTkyMjQ4MS4xOTg0NDktLjM5Njg5OTIuMjk3Njc0LTEuMDkxNDcyOS4yOTc2NzQtMS44ODUyNzEzdi0xNC40ODY4MjE3YzAtMi4wODM3MjEtLjM5Njg5OS0zLjY3MTMxNzgtMS4xOTA2OTgtNC43NjI3OTA3LS43OTM3OTgtMS4wOTE0NzI5LTEuODg1MjcwOS0xLjU4NzU5NjktMy40NzI4Njc4LTEuNTg3NTk2OS0uNzkzNzk4NCAwLTEuNTg3NTk2OS4wOTkyMjQ4LTIuMjgyMTcwNS4zOTY4OTkyLS42OTQ1NzM2LjE5ODQ0OTYtMS4zODkxNDczLjU5NTM0ODgtMi4wODM3MjA5IDEuMDkxNDcyOS0uNTk1MzQ4OS4zOTY4OTkyLTEuMDkxNDcyOS43OTM3OTg0LTEuNDg4MzcyMSAxLjI4OTkyMjUtLjM5Njg5OTMuMzk2ODk5Mi0uNjk0NTczNy43OTM3OTg0LS44OTMwMjMzIDEuMTkwNjk3NnYxNi41NzA1NDI3YzAgLjY5NDU3MzYuMDk5MjI0OCAxLjI4OTkyMjQuMjk3Njc0NCAxLjc4NjA0NjUuMTk4NDQ5Ni40OTYxMjQuNTk1MzQ4OS44OTMwMjMyLjk5MjI0ODEgMS4wOTE0NzI4LjI5NzY3NDQuMTk4NDQ5Ny42OTQ1NzM2LjM5Njg5OTMgMS4xOTA2OTc3LjQ5NjEyNDEuNDk2MTI0LjA5OTIyNDguOTkyMjQ4LjE5ODQ0OTYgMS40ODgzNzIxLjI5NzY3NDR2Mi4yODIxNzA1aC0xOC44NTI3MTMydi0yLjI4MjE3MDVjLjQ5NjEyNCAwIC45OTIyNDgxLS4wOTkyMjQ4IDEuNTg3NTk2OS0uMTk4NDQ5Ni40OTYxMjQtLjA5OTIyNDguOTkyMjQ4LS4xOTg0NDk2IDEuMzg5MTQ3My0uMjk3Njc0NC42OTQ1NzM2LS4xOTg0NDk2IDEuMDkxNDcyOC0uNTk1MzQ4OSAxLjM4OTE0NzMtMS4wOTE0NzI5LjE5ODQ0OTYtLjQ5NjEyNC4zOTY4OTkyLTEuMDkxNDcyOS4zOTY4OTkyLTEuODg1MjcxM3YtMTguMDU4OTE0N2MwLS41OTUzNDg5LS4xOTg0NDk2LTEuMjg5OTIyNS0uNDk2MTI0LTEuODg1MjcxNC0uMjk3Njc0NS0uNTk1MzQ4OC0uNzkzNzk4NS0xLjA5MTQ3MjgtMS4yODk5MjI1LTEuNDg4MzcyMS0uMzk2ODk5My0uMTk4NDQ5Ni0uNzkzNzk4NS0uNDk2MTI0LTEuMzg5MTQ3My0uNTk1MzQ4OC0uNTk1MzQ4OC0uMTk4NDQ5Ni0xLjE5MDY5NzctLjI5NzY3NDQtMS44ODUyNzEzLS4yOTc2NzQ0di0yLjI4MjE3MDZsMTQuNzg0NDk2MS0uNzkzNzk4NC40OTYxMjQuNDk2MTI0djQuNDY1MTE2M2guMDk5MjI0OGMuNTk1MzQ4OS0uNDk2MTI0IDEuMjg5OTIyNS0xLjA5MTQ3MjkgMi4wODM3MjEtMS44ODUyNzEzLjc5Mzc5ODQtLjY5NDU3MzcgMS41ODc1OTY5LTEuMjg5OTIyNSAyLjI4MjE3MDUtMS43ODYwNDY1Ljc5Mzc5ODUtLjQ5NjEyNDEgMS43ODYwNDY1LS44OTMwMjMzIDIuOTc2NzQ0Mi0xLjI4OTkyMjVzMi41Nzk4NDUzLS40OTYxMjQgMy45Njg5OTIzLS40OTYxMjRjMy4zNzM2NDMgMCA1Ljg1NDI2NC45OTIyNDggNy41NDEwODUgMi44Nzc1MTkzIDEuNjg2ODIyIDEuODg1MjcxNCAyLjQ4MDYyIDQuNDY1MTE2MyAyLjQ4MDYyIDcuNjQwMzEwMXYxNS4xODEzOTU0YzAgLjc5Mzc5ODQuMDk5MjI1IDEuMzg5MTQ3My4yOTc2NzUgMS43ODYwNDY1LjE5ODQ0OS40OTYxMjQuNjk0NTczLjc5Mzc5ODQgMS4yODk5MjIgMS4wOTE0NzI4LjI5NzY3NS4wOTkyMjQ5LjY5NDU3NC4yOTc2NzQ1IDEuMTkwNjk4LjM5Njg5OTNzLjk5MjI0OC4xOTg0NDk2IDEuNjg2ODIyLjI5NzY3NDR2Mi4zODEzOTUzeiIvPjxwYXRoIGQ9Im0xNTguNzU5NjkgNDguNjIwMTU1aC0xNC41ODYwNDdjLTEuNzg2MDQ2LTMuMTc1MTkzOC0zLjQ3Mjg2OC01Ljg1NDI2MzUtNC45NjEyNC04LjAzNzIwOTMtMS40ODgzNzItMi4xODI5NDU3LTIuODc3NTE5LTQuMjY2NjY2Ni00LjE2NzQ0Mi02LjA1MjcxMzFsLTEuNzg2MDQ2IDEuNTg3NTk2OXY2Ljc0NzI4NjhjMCAuNjk0NTczNi4wOTkyMjUgMS4zODkxNDczLjI5NzY3NCAxLjc4NjA0NjUuMTk4NDUuNDk2MTI0LjU5NTM0OS43OTM3OTg0IDEuMjg5OTIzIDEuMDkxNDcyOS4zOTY4OTkuMTk4NDQ5Ni43OTM3OTguMjk3Njc0NCAxLjI4OTkyMi4zOTY4OTkycy45OTIyNDguMTk4NDQ5NiAxLjQ4ODM3Mi4xOTg0NDk2djIuMjgyMTcwNWgtMTkuMjQ5NjEydi0yLjI4MjE3MDVjLjQ5NjEyNCAwIC45OTIyNDgtLjA5OTIyNDggMS41ODc1OTctLjE5ODQ0OTYuNDk2MTI0LS4wOTkyMjQ4Ljk5MjI0OC0uMTk4NDQ5NiAxLjM4OTE0Ny0uMjk3Njc0NC42OTQ1NzQtLjE5ODQ0OTYgMS4wOTE0NzMtLjU5NTM0ODkgMS4zODkxNDctMS4wOTE0NzI5LjE5ODQ1LS40OTYxMjQuMzk2ODk5LTEuMDkxNDcyOS4zOTY4OTktMS44ODUyNzEzdi0zNC41MzAyMzI1OGMwLS42OTQ1NzM2NC0uMTk4NDQ5LTEuMzg5MTQ3MjktLjQ5NjEyNC0yLjA4MzcyMDkzLS4yOTc2NzQtLjY5NDU3MzY0LS42OTQ1NzMtMS4yODk5MjI0OC0xLjI4OTkyMi0xLjY4NjgyMTctLjM5Njg5OS0uMTk4NDQ5NjItLjk5MjI0OC0uNDk2MTI0MDQtMS43ODYwNDctLjU5NTM0ODg0LS43OTM3OTgtLjE5ODQ0OTYxLTEuNDg4MzcyLS4yOTc2NzQ0Mi0yLjE4Mjk0NS0uMjk3Njc0NDJ2LTIuMjgyMTcwNTRsMTUuMzc5ODQ1LS43OTM3OTg0NS40OTYxMjQuNDk2MTI0MDN2MzEuOTUwMzg3NjNjMS40ODgzNzItMS4zODkxNDczIDMuMjc0NDE4LTIuOTc2NzQ0MiA1LjE1OTY5LTQuNzYyNzkwNyAxLjg4NTI3MS0xLjc4NjA0NjUgMy40NzI4NjgtMy4yNzQ0MTg2IDQuNTY0MzQxLTQuNDY1MTE2My42OTQ1NzMtLjY5NDU3MzcgMS4wOTE0NzMtMS4xOTA2OTc3IDEuMDkxNDczLTEuNTg3NTk2OS4wOTkyMjQtLjM5Njg5OTIuMDk5MjI0LS41OTUzNDg4LjA5OTIyNC0uNjk0NTczNyAwLS4zOTY4OTkyLS4yOTc2NzQtLjY5NDU3MzYtLjk5MjI0OC0uODkzMDIzMi0uNjk0NTczLS4xOTg0NDk2LTEuNTg3NTk3LS40OTYxMjQtMi45NzY3NDQtLjY5NDU3Mzd2LTIuMTgyOTQ1N2gxNS42Nzc1MnYyLjE4Mjk0NTdjLTIuMDgzNzIxLjU5NTM0ODktMy42NzEzMTggMS4wOTE0NzI5LTQuNzYyNzkxIDEuNTg3NTk2OS0xLjA5MTQ3My40OTYxMjQxLTIuMjgyMTcxIDEuMTkwNjk3Ny0zLjU3MjA5MyAxLjk4NDQ5NjItLjg5MzAyMy41OTUzNDg4LTEuNjg2ODIyIDEuMTkwNjk3Ni0yLjQ4MDYyIDEuNzg2MDQ2NS0uNzkzNzk5LjU5NTM0ODgtMS42ODY4MjIgMS4zODkxNDczLTIuNzc4Mjk1IDIuMjgyMTcwNSAxLjk4NDQ5NiAyLjk3Njc0NDIgMy44Njk3NjggNS42NTU4MTQgNS41NTY1ODkgOC4xMzY0MzQxIDEuNjg2ODIyIDIuNDgwNjIwMiAzLjQ3Mjg2OCA1LjE1OTY5IDUuMzU4MTQgNy45Mzc5ODQ1LjU5NTM0OS45OTIyNDgxIDEuMzg5MTQ3IDEuNTg3NTk2OSAyLjM4MTM5NSAxLjk4NDQ5NjIuOTkyMjQ4LjI5NzY3NDQgMS44ODUyNzEuNDk2MTI0IDIuODc3NTIuNTk1MzQ4OHYyLjM4MTM5NTN6Ii8+PHBhdGggZD0ibTE3OC42MDQ2NTEgNDguNjIwMTU1aC0xOS41NDcyODd2LTIuMjgyMTcwNWMuNDk2MTI0IDAgMS4wOTE0NzMtLjA5OTIyNDggMS41ODc1OTctLjE5ODQ0OTZzLjk5MjI0OC0uMTk4NDQ5NiAxLjI4OTkyMy0uMjk3Njc0NGMuNjk0NTczLS4xOTg0NDk2IDEuMDkxNDczLS41OTUzNDg5IDEuMzg5MTQ3LTEuMDkxNDcyOXMuMzk2ODk5LTEuMDkxNDcyOS4zOTY4OTktMS44ODUyNzEzdi0xOC4wNTg5MTQ3YzAtLjY5NDU3MzctLjE5ODQ0OS0xLjM4OTE0NzMtLjQ5NjEyNC0xLjg4NTI3MTQtLjI5NzY3NC0uNTk1MzQ4OC0uNjk0NTczLS45OTIyNDgtMS4xOTA2OTctMS4yODk5MjI0LS4zOTY5LS4xOTg0NDk3LS44OTMwMjQtLjQ5NjEyNDEtMS42ODY4MjItLjY5NDU3MzctLjc5Mzc5OS0uMTk4NDQ5Ni0xLjQ4ODM3Mi0uMzk2ODk5Mi0yLjA4MzcyMS0uMzk2ODk5MnYtMi4yODIxNzA2bDE1LjE4MTM5NS0uNzkzNzk4NC40OTYxMjQuNDk2MTI0djI0LjYwNzc1MmMwIC42OTQ1NzM2LjE5ODQ1IDEuMjg5OTIyNC40OTYxMjQgMS44ODUyNzEzLjI5NzY3NS40OTYxMjQuNzkzNzk5Ljg5MzAyMzIgMS4yODk5MjMgMS4wOTE0NzI4LjM5Njg5OS4xOTg0NDk3Ljg5MzAyMy4zOTY4OTkzIDEuMzg5MTQ3LjQ5NjEyNDFzLjk5MjI0OC4xOTg0NDk2IDEuNTg3NTk3LjI5NzY3NDR2Mi4yODIxNzA1em0tNC40NjUxMTYtNDIuMTcwNTQyNmMwIDEuNTg3NTk2OS0uNTk1MzQ5IDIuODc3NTE5MzgtMS43ODYwNDcgMy45Njg5OTIzLTEuMTkwNjk3IDEuMDkxNDcyOC0yLjY3OTA2OSAxLjY4NjgyMTctNC4yNjY2NjYgMS42ODY4MjE3LTEuNjg2ODIyIDAtMy4wNzU5NjktLjU5NTM0ODktNC4zNjU4OTItMS42ODY4MjE3LTEuMTkwNjk3LTEuMDkxNDcyOTItMS43ODYwNDYtMi40ODA2MjAyLTEuNzg2MDQ2LTMuOTY4OTkyMyAwLTEuNTg3NTk2OS41OTUzNDktMi44Nzc1MTkzOCAxLjc4NjA0Ni00LjA2ODIxNzA1IDEuMTkwNjk4LTEuMDkxNDcyODcgMi42NzkwNy0xLjY4NjgyMTcxIDQuMzY1ODkyLTEuNjg2ODIxNzEgMS42ODY4MjEgMCAzLjA3NTk2OS41OTUzNDg4NCA0LjI2NjY2NiAxLjY4NjgyMTcxIDEuMTkwNjk4IDEuMDkxNDcyODcgMS43ODYwNDcgMi40ODA2MjAxNSAxLjc4NjA0NyA0LjA2ODIxNzA1eiIvPjxwYXRoIGQ9Im0yMjIuMzYyNzkxIDQ4LjYyMDE1NWgtMTguNjU0MjY0di0yLjI4MjE3MDVjLjM5Njg5OSAwIC44OTMwMjMtLjA5OTIyNDggMS4zODkxNDctLjE5ODQ0OTYuNTk1MzQ5LS4wOTkyMjQ4Ljk5MjI0OC0uMTk4NDQ5NiAxLjI4OTkyMy0uMjk3Njc0NC4zOTY4OTktLjE5ODQ0OTYuNjk0NTc0LS41OTUzNDg5Ljg5MzAyMy0uOTkyMjQ4MS4xOTg0NS0uMzk2ODk5Mi4yOTc2NzUtMS4wOTE0NzI5LjI5NzY3NS0xLjg4NTI3MTN2LTE0LjQ4NjgyMTdjMC0yLjA4MzcyMS0uMzk2OS0zLjY3MTMxNzgtMS4xOTA2OTgtNC43NjI3OTA3LS43OTM3OTktMS4wOTE0NzI5LTEuODg1MjcxLTEuNTg3NTk2OS0zLjQ3Mjg2OC0xLjU4NzU5NjktLjc5Mzc5OSAwLTEuNTg3NTk3LjA5OTIyNDgtMi4yODIxNzEuMzk2ODk5MnMtMS4zODkxNDcuNTk1MzQ4OC0yLjA4MzcyMSAxLjA5MTQ3MjljLS41OTUzNDkuMzk2ODk5Mi0xLjA5MTQ3My43OTM3OTg0LTEuNDg4MzcyIDEuMjg5OTIyNS0uMzk2ODk5LjM5Njg5OTItLjY5NDU3NC43OTM3OTg0LS44OTMwMjMgMS4xOTA2OTc2djE2LjU3MDU0MjdjMCAuNjk0NTczNi4wOTkyMjUgMS4yODk5MjI0LjI5NzY3NCAxLjc4NjA0NjUuMTk4NDUuNDk2MTI0LjU5NTM0OS44OTMwMjMyLjk5MjI0OCAxLjA5MTQ3MjguMjk3Njc1LjE5ODQ0OTcuNjk0NTc0LjM5Njg5OTMgMS4xOTA2OTguNDk2MTI0MXMuOTkyMjQ4LjE5ODQ0OTYgMS40ODgzNzIuMjk3Njc0NHYyLjI4MjE3MDVoLTE4Ljg1MjcxM3YtMi4yODIxNzA1Yy40OTYxMjQgMCAuOTkyMjQ4LS4wOTkyMjQ4IDEuNTg3NTk3LS4xOTg0NDk2LjQ5NjEyNC0uMDk5MjI0OC45OTIyNDgtLjE5ODQ0OTYgMS4zODkxNDctLjI5NzY3NDQuNjk0NTc0LS4xOTg0NDk2IDEuMDkxNDczLS41OTUzNDg5IDEuMzg5MTQ3LTEuMDkxNDcyOS4xOTg0NS0uNDk2MTI0LjM5NjktMS4wOTE0NzI5LjM5NjktMS44ODUyNzEzdi0xOC4wNTg5MTQ3YzAtLjU5NTM0ODktLjE5ODQ1LTEuMjg5OTIyNS0uNDk2MTI0LTEuODg1MjcxNC0uMjk3Njc1LS41OTUzNDg4LS43OTM3OTktMS4wOTE0NzI4LTEuMjg5OTIzLTEuNDg4MzcyMS0uMzk2ODk5LS4xOTg0NDk2LS43OTM3OTgtLjQ5NjEyNC0xLjM4OTE0Ny0uNTk1MzQ4OC0uNTk1MzQ5LS4xOTg0NDk2LTEuMTkwNjk4LS4yOTc2NzQ0LTEuODg1MjcxLS4yOTc2NzQ0di0yLjI4MjE3MDZsMTQuNzg0NDk2LS43OTM3OTg0LjQ5NjEyNC40OTYxMjR2NC40NjUxMTYzaC4wOTkyMjRjLjU5NTM0OS0uNDk2MTI0IDEuMjg5OTIzLTEuMDkxNDcyOSAyLjA4MzcyMS0xLjg4NTI3MTMuNzkzNzk5LS42OTQ1NzM3IDEuNTg3NTk3LTEuMjg5OTIyNSAyLjI4MjE3MS0xLjc4NjA0NjUuNzkzNzk4LS40OTYxMjQxIDEuNzg2MDQ2LS44OTMwMjMzIDIuOTc2NzQ0LTEuMjg5OTIyNXMyLjU3OTg0NS0uNDk2MTI0IDMuOTY4OTkyLS40OTYxMjRjMy4zNzM2NDQgMCA1Ljg1NDI2NC45OTIyNDggNy41NDEwODYgMi44Nzc1MTkzIDEuNjg2ODIxIDEuODg1MjcxNCAyLjQ4MDYyIDQuNDY1MTE2MyAyLjQ4MDYyIDcuNjQwMzEwMXYxNS4xODEzOTU0YzAgLjc5Mzc5ODQuMDk5MjI1IDEuMzg5MTQ3My4yOTc2NzQgMS43ODYwNDY1LjE5ODQ1LjQ5NjEyNC42OTQ1NzQuNzkzNzk4NCAxLjI4OTkyMyAxLjA5MTQ3MjguMjk3Njc0LjA5OTIyNDkuNjk0NTczLjI5NzY3NDUgMS4xOTA2OTcuMzk2ODk5M3MuOTkyMjQ4LjE5ODQ0OTYgMS42ODY4MjIuMjk3Njc0NHYyLjM4MTM5NTN6Ii8+PHBhdGggZD0ibTIzOS41Mjg2ODIgNDkuNzExNjI3OWMtMS45ODQ0OTYgMC0zLjk2ODk5Mi0uMjk3Njc0NC01Ljg1NDI2My0uODkzMDIzMi0xLjg4NTI3Mi0uNTk1MzQ4OS0zLjM3MzY0NC0xLjE5MDY5NzctNC40NjUxMTctMS44ODUyNzE0bC0uODkzMDIzIDIuMDgzNzIxaC0yLjM4MTM5NWwtLjM5NjktMTEuNTEwMDc3NmgyLjI4MjE3MWMuMjk3Njc0Ljg5MzAyMzMuNzkzNzk4IDEuOTg0NDk2MiAxLjU4NzU5NyAzLjE3NTE5MzguNjk0NTc0IDEuMTkwNjk3NyAxLjU4NzU5NyAyLjE4Mjk0NTggMi40ODA2MiAzLjE3NTE5MzguOTkyMjQ4Ljg5MzAyMzMgMi4wODM3MjEgMS42ODY4MjE3IDMuMzczNjQ0IDIuMzgxMzk1NCAxLjI4OTkyMi41OTUzNDg4IDIuNTc5ODQ0Ljk5MjI0ODEgMy45Njg5OTIuOTkyMjQ4MSAxLjg4NTI3MSAwIDMuMjc0NDE4LS4zOTY4OTkzIDQuMTY3NDQyLTEuMDkxNDcyOS44OTMwMjMtLjY5NDU3MzcgMS4zODkxNDctMS44ODUyNzEzIDEuMzg5MTQ3LTMuMzczNjQzNCAwLS43OTM3OTg1LS4xOTg0NS0xLjQ4ODM3MjEtLjU5NTM0OS0yLjA4MzcyMS0uMzk2ODk5LS40OTYxMjQtLjk5MjI0OC0uOTkyMjQ4LTEuNjg2ODIyLTEuMzg5MTQ3Mi0uNzkzNzk4LS4zOTY4OTkzLTEuNjg2ODIxLS43OTM3OTg1LTIuNjc5MDY5LTEuMDkxNDcyOXMtMi4xODI5NDYtLjU5NTM0ODgtMy41NzIwOTMtMS4wOTE0NzI5Yy0xLjM4OTE0OC0uMzk2ODk5Mi0yLjU3OTg0NS0uNzkzNzk4NC0zLjU3MjA5My0xLjI4OTkyMjUtLjk5MjI0OS0uMzk2ODk5Mi0yLjA4MzcyMS0xLjA5MTQ3MjgtMy4wNzU5NjktMS45ODQ0OTYxLS44OTMwMjQtLjc5Mzc5ODQtMS42ODY4MjItMS43ODYwNDY1LTIuMTgyOTQ2LTIuODc3NTE5NC0uNTk1MzQ5LTEuMDkxNDcyOC0uNzkzNzk5LTIuNDgwNjIwMS0uNzkzNzk5LTQuMDY4MjE3IDAtMi44Nzc1MTk0IDEuMTkwNjk4LTUuMjU4OTE0NyAzLjY3MTMxOC03LjA0NDk2MTMgMi40ODA2Mi0xLjc4NjA0NjUgNS42NTU4MTQtMi42NzkwNjk3IDkuNjI0ODA2LTIuNjc5MDY5NyAxLjg4NTI3MiAwIDMuNTcyMDkzLjE5ODQ0OTYgNS4xNTk2OS41OTUzNDg4czIuODc3NTIuNzkzNzk4NSAzLjk2ODk5MyAxLjI4OTkyMjVsLjY5NDU3My0xLjc4NjA0NjVoMi4zODEzOTZsLjQ5NjEyNCAxMC41MTc4Mjk0aC0yLjE4Mjk0NmMtLjY5NDU3NC0yLjE4Mjk0NTctMS45ODQ0OTYtMy45Njg5OTIyLTMuNjcxMzE4LTUuNTU2NTg5MS0xLjc4NjA0Ni0xLjU4NzU5NjktMy42NzEzMTgtMi4zODEzOTU0LTUuNjU1ODE0LTIuMzgxMzk1NC0xLjU4NzU5NyAwLTIuODc3NTE5LjI5NzY3NDUtMy43NzA1NDMuOTkyMjQ4MS0uODkzMDIzLjY5NDU3MzYtMS4zODkxNDcgMS41ODc1OTY5LTEuMzg5MTQ3IDIuNzc4Mjk0NiAwIDEuNTg3NTk2OS42OTQ1NzQgMi42NzkwNjk3IDEuOTg0NDk2IDMuMzczNjQzNCAxLjI4OTkyMy42OTQ1NzM2IDMuMTc1MTk0IDEuMzg5MTQ3MyA1LjU1NjU4OSAxLjk4NDQ5NjEgMy42NzEzMTguOTkyMjQ4MSA2LjM1MDM4OCAyLjI4MjE3MDYgOC4xMzY0MzUgMy44Njk3Njc1IDEuNjg2ODIxIDEuNjg2ODIxNyAyLjU3OTg0NCAzLjc3MDU0MjYgMi41Nzk4NDQgNi4yNTExNjI3IDAgMy4zNzM2NDM1LTEuMjg5OTIyIDYuMDUyNzEzMi0zLjk2ODk5MiA3LjgzODc1OTctMi45NzY3NDQgMS43ODYwNDY1LTYuNDQ5NjEyIDIuNzc4Mjk0Ni0xMC43MTYyNzkgMi43NzgyOTQ2eiIvPjwvZz48L3N2Zz4=;" parent="1" vertex="1">
          <mxGeometry x="150" y="245.62" width="37.13" height="60.93" as="geometry" />
        </mxCell>
        <mxCell id="PDKZWIRo8kdzS-4Apmol-23" style="edgeStyle=orthogonalEdgeStyle;rounded=0;orthogonalLoop=1;jettySize=auto;html=1;strokeWidth=2;" parent="1" source="PDKZWIRo8kdzS-4Apmol-10" target="PDKZWIRo8kdzS-4Apmol-12" edge="1">
          <mxGeometry relative="1" as="geometry">
            <Array as="points">
              <mxPoint x="620" y="369" />
              <mxPoint x="620" y="421" />
            </Array>
          </mxGeometry>
        </mxCell>
        <mxCell id="PDKZWIRo8kdzS-4Apmol-10" value="" style="outlineConnect=0;dashed=0;verticalLabelPosition=bottom;verticalAlign=top;align=center;html=1;shape=mxgraph.aws3.ec2;fillColor=#F58534;gradientColor=none;" parent="1" vertex="1">
          <mxGeometry x="510" y="338.49999999999994" width="50" height="61.5" as="geometry" />
        </mxCell>
        <mxCell id="PDKZWIRo8kdzS-4Apmol-11" value="" style="outlineConnect=0;dashed=0;verticalLabelPosition=bottom;verticalAlign=top;align=center;html=1;shape=mxgraph.aws3.ec2;fillColor=#F58534;gradientColor=none;" parent="1" vertex="1">
          <mxGeometry x="660" y="279.25" width="50" height="61.5" as="geometry" />
        </mxCell>
        <mxCell id="PDKZWIRo8kdzS-4Apmol-12" value="" style="outlineConnect=0;dashed=0;verticalLabelPosition=bottom;verticalAlign=top;align=center;html=1;shape=mxgraph.aws3.ec2;fillColor=#F58534;gradientColor=none;" parent="1" vertex="1">
          <mxGeometry x="660" y="390" width="50" height="61.5" as="geometry" />
        </mxCell>
        <mxCell id="PDKZWIRo8kdzS-4Apmol-63" style="edgeStyle=orthogonalEdgeStyle;rounded=0;orthogonalLoop=1;jettySize=auto;html=1;strokeWidth=2;" parent="1" source="PDKZWIRo8kdzS-4Apmol-14" target="PDKZWIRo8kdzS-4Apmol-7" edge="1">
          <mxGeometry relative="1" as="geometry">
            <Array as="points">
              <mxPoint x="213" y="130" />
              <mxPoint x="169" y="130" />
            </Array>
          </mxGeometry>
        </mxCell>
        <mxCell id="PDKZWIRo8kdzS-4Apmol-64" value="Text" style="edgeLabel;html=1;align=center;verticalAlign=middle;resizable=0;points=[];" parent="PDKZWIRo8kdzS-4Apmol-63" vertex="1" connectable="0">
          <mxGeometry x="-0.5984" relative="1" as="geometry">
            <mxPoint as="offset" />
          </mxGeometry>
        </mxCell>
        <mxCell id="PDKZWIRo8kdzS-4Apmol-65" value="&lt;font color=&quot;#ff3333&quot; style=&quot;font-size: 14px;&quot;&gt;&lt;b&gt;WebHook&lt;/b&gt;&lt;/font&gt;" style="edgeLabel;html=1;align=center;verticalAlign=middle;resizable=0;points=[];" parent="PDKZWIRo8kdzS-4Apmol-63" vertex="1" connectable="0">
          <mxGeometry x="-0.5761" y="-4" relative="1" as="geometry">
            <mxPoint x="1" as="offset" />
          </mxGeometry>
        </mxCell>
        <mxCell id="PDKZWIRo8kdzS-4Apmol-14" value="" style="dashed=0;outlineConnect=0;html=1;align=center;labelPosition=center;verticalLabelPosition=bottom;verticalAlign=top;shape=mxgraph.weblogos.github" parent="1" vertex="1">
          <mxGeometry x="177.5" y="-120" width="75" height="70" as="geometry" />
        </mxCell>
        <mxCell id="PDKZWIRo8kdzS-4Apmol-21" style="edgeStyle=orthogonalEdgeStyle;rounded=0;orthogonalLoop=1;jettySize=auto;html=1;entryX=0;entryY=0.5;entryDx=0;entryDy=0;entryPerimeter=0;strokeWidth=2;" parent="1" source="PDKZWIRo8kdzS-4Apmol-10" target="PDKZWIRo8kdzS-4Apmol-11" edge="1">
          <mxGeometry relative="1" as="geometry">
            <Array as="points">
              <mxPoint x="620" y="369" />
              <mxPoint x="620" y="310" />
            </Array>
          </mxGeometry>
        </mxCell>
        <mxCell id="PDKZWIRo8kdzS-4Apmol-26" value="" style="image;sketch=0;aspect=fixed;html=1;points=[];align=center;fontSize=12;image=img/lib/mscae/Kubernetes.svg;" parent="1" vertex="1">
          <mxGeometry x="480" y="252.33" width="49.49" height="47.51" as="geometry" />
        </mxCell>
        <mxCell id="PDKZWIRo8kdzS-4Apmol-32" style="edgeStyle=orthogonalEdgeStyle;rounded=0;orthogonalLoop=1;jettySize=auto;html=1;strokeColor=#6666FF;strokeWidth=2;" parent="1" source="PDKZWIRo8kdzS-4Apmol-28" target="PDKZWIRo8kdzS-4Apmol-31" edge="1">
          <mxGeometry relative="1" as="geometry" />
        </mxCell>
        <mxCell id="PDKZWIRo8kdzS-4Apmol-28" value="Amazon EC2" style="sketch=0;outlineConnect=0;fontColor=#232F3E;gradientColor=none;strokeColor=#ffffff;fillColor=#232F3E;dashed=0;verticalLabelPosition=middle;verticalAlign=bottom;align=center;html=1;whiteSpace=wrap;fontSize=10;fontStyle=1;spacing=3;shape=mxgraph.aws4.productIcon;prIcon=mxgraph.aws4.ec2;" parent="1" vertex="1">
          <mxGeometry x="-120" y="35" width="60" height="85" as="geometry" />
        </mxCell>
        <mxCell id="PDKZWIRo8kdzS-4Apmol-6" value="" style="shape=image;verticalLabelPosition=bottom;labelBackgroundColor=default;verticalAlign=top;aspect=fixed;imageAspect=0;image=data:image/svg+xml,PHN2ZyB4bWxucz0iaHR0cDovL3d3dy53My5vcmcvMjAwMC9zdmciIGZpbGw9Im5vbmUiIHZpZXdCb3g9IjAgMCA2NCA2NCIgaGVpZ2h0PSI4MDBweCIgd2lkdGg9IjgwMHB4Ij48cGF0aCBmaWxsPSIjNDA0MEIyIiBkPSJNMzguMDYgMjYuMTUxdjExLjQ3M0w0OCAzMS44OTFWMjAuNDA2bC05Ljk0IDUuNzQ1eiIvPjxwYXRoIGZpbGw9IiM1QzRFRTUiIGQ9Im0yNy4wMyAyMC40MDYgOS45NCA1Ljc0NXYxMS40NzNsLTkuOTQtNS43NFYyMC40MDd6TTE2IDE0djExLjQ3OWw5Ljk0IDUuNzR2LTExLjQ4TDE2IDE0em0xMS4wMyAzMC42MjQgOS45NCA1Ljc0di0xMS40OGwtOS45NC01LjczOXYxMS40OHoiLz48L3N2Zz4=;" parent="1" vertex="1">
          <mxGeometry x="-150" y="93.75" width="80" height="80" as="geometry" />
        </mxCell>
        <mxCell id="PDKZWIRo8kdzS-4Apmol-59" style="edgeStyle=orthogonalEdgeStyle;rounded=0;orthogonalLoop=1;jettySize=auto;html=1;strokeColor=#0000FF;strokeWidth=1;dashed=1;" parent="1" source="PDKZWIRo8kdzS-4Apmol-43" target="PDKZWIRo8kdzS-4Apmol-10" edge="1">
          <mxGeometry relative="1" as="geometry">
            <Array as="points">
              <mxPoint x="460" y="220" />
              <mxPoint x="535" y="220" />
            </Array>
          </mxGeometry>
        </mxCell>
        <mxCell id="PDKZWIRo8kdzS-4Apmol-62" value="&lt;font color=&quot;#333333&quot; style=&quot;font-size: 13px;&quot;&gt;Pulling image&lt;/font&gt;" style="edgeLabel;html=1;align=center;verticalAlign=middle;resizable=0;points=[];" parent="PDKZWIRo8kdzS-4Apmol-59" vertex="1" connectable="0">
          <mxGeometry x="-0.0879" y="-2" relative="1" as="geometry">
            <mxPoint as="offset" />
          </mxGeometry>
        </mxCell>
        <mxCell id="PDKZWIRo8kdzS-4Apmol-43" value="" style="shape=image;imageAspect=0;aspect=fixed;verticalLabelPosition=bottom;verticalAlign=top;image=https://www.manageengine.com/log-management/images/docker-hub-security-breach.jpg;" parent="1" vertex="1">
          <mxGeometry x="370" y="-110" width="139.19" height="72.54" as="geometry" />
        </mxCell>
        <mxCell id="PDKZWIRo8kdzS-4Apmol-47" value="" style="rounded=0;whiteSpace=wrap;html=1;dashed=1;strokeColor=#FF9933;" parent="1" vertex="1">
          <mxGeometry x="560" y="126.88" width="120" height="60" as="geometry" />
        </mxCell>
        <mxCell id="PDKZWIRo8kdzS-4Apmol-8" value="" style="image;sketch=0;aspect=fixed;html=1;points=[];align=center;fontSize=12;image=img/lib/mscae/Docker.svg;" parent="1" vertex="1">
          <mxGeometry x="570" y="140" width="48.79" height="40" as="geometry" />
        </mxCell>
        <mxCell id="PDKZWIRo8kdzS-4Apmol-77" style="edgeStyle=orthogonalEdgeStyle;rounded=0;orthogonalLoop=1;jettySize=auto;html=1;entryX=1;entryY=0.5;entryDx=0;entryDy=0;strokeWidth=2;" parent="1" source="PDKZWIRo8kdzS-4Apmol-9" target="PDKZWIRo8kdzS-4Apmol-43" edge="1">
          <mxGeometry relative="1" as="geometry">
            <Array as="points">
              <mxPoint x="545" y="-74" />
            </Array>
          </mxGeometry>
        </mxCell>
        <mxCell id="PDKZWIRo8kdzS-4Apmol-78" value="&lt;font color=&quot;#ff3333&quot; style=&quot;font-size: 13px;&quot;&gt;&lt;b&gt;Pushing Image&lt;/b&gt;&lt;/font&gt;" style="edgeLabel;html=1;align=center;verticalAlign=middle;resizable=0;points=[];" parent="PDKZWIRo8kdzS-4Apmol-77" vertex="1" connectable="0">
          <mxGeometry x="-0.1504" relative="1" as="geometry">
            <mxPoint as="offset" />
          </mxGeometry>
        </mxCell>
        <mxCell id="XtlU3vXgIYlVjPlW-ONo-2" style="edgeStyle=orthogonalEdgeStyle;rounded=0;orthogonalLoop=1;jettySize=auto;html=1;dashed=1;" edge="1" parent="1" source="PDKZWIRo8kdzS-4Apmol-9" target="XtlU3vXgIYlVjPlW-ONo-1">
          <mxGeometry relative="1" as="geometry">
            <Array as="points">
              <mxPoint x="545" y="90" />
              <mxPoint x="700" y="90" />
            </Array>
          </mxGeometry>
        </mxCell>
        <mxCell id="XtlU3vXgIYlVjPlW-ONo-3" value="85" style="edgeLabel;html=1;align=center;verticalAlign=middle;resizable=0;points=[];" vertex="1" connectable="0" parent="XtlU3vXgIYlVjPlW-ONo-2">
          <mxGeometry x="-0.3235" relative="1" as="geometry">
            <mxPoint x="69" y="-60" as="offset" />
          </mxGeometry>
        </mxCell>
        <mxCell id="PDKZWIRo8kdzS-4Apmol-9" value="" style="outlineConnect=0;dashed=0;verticalLabelPosition=bottom;verticalAlign=top;align=center;html=1;shape=mxgraph.aws3.ec2;fillColor=#F58534;gradientColor=none;" parent="1" vertex="1">
          <mxGeometry x="520" y="100" width="50" height="60" as="geometry" />
        </mxCell>
        <mxCell id="PDKZWIRo8kdzS-4Apmol-50" value="" style="dashed=0;outlineConnect=0;html=1;align=center;labelPosition=center;verticalLabelPosition=bottom;verticalAlign=top;shape=mxgraph.weblogos.java" parent="1" vertex="1">
          <mxGeometry x="203.14" y="272" width="23.71" height="48" as="geometry" />
        </mxCell>
        <mxCell id="PDKZWIRo8kdzS-4Apmol-5" value="" style="dashed=0;outlineConnect=0;html=1;align=center;labelPosition=center;verticalLabelPosition=bottom;verticalAlign=top;shape=mxgraph.weblogos.java" parent="1" vertex="1">
          <mxGeometry x="630" y="140" width="20" height="33.75" as="geometry" />
        </mxCell>
        <mxCell id="PDKZWIRo8kdzS-4Apmol-52" value="&lt;b&gt;&lt;font style=&quot;font-size: 15px;&quot;&gt;MASTER&lt;/font&gt;&lt;/b&gt;" style="text;html=1;align=center;verticalAlign=middle;resizable=0;points=[];autosize=1;strokeColor=none;fillColor=none;" parent="1" vertex="1">
          <mxGeometry x="210" y="173.75" width="90" height="30" as="geometry" />
        </mxCell>
        <mxCell id="PDKZWIRo8kdzS-4Apmol-53" value="&lt;b style=&quot;&quot;&gt;NODE-1&lt;/b&gt;" style="text;html=1;align=center;verticalAlign=middle;resizable=0;points=[];autosize=1;strokeColor=none;fillColor=none;" parent="1" vertex="1">
          <mxGeometry x="650" y="338.5" width="70" height="30" as="geometry" />
        </mxCell>
        <mxCell id="PDKZWIRo8kdzS-4Apmol-54" value="&lt;b style=&quot;&quot;&gt;NODE-2&lt;/b&gt;" style="text;html=1;align=center;verticalAlign=middle;resizable=0;points=[];autosize=1;strokeColor=none;fillColor=none;" parent="1" vertex="1">
          <mxGeometry x="650" y="443.94" width="70" height="30" as="geometry" />
        </mxCell>
        <mxCell id="PDKZWIRo8kdzS-4Apmol-67" value="&lt;b&gt;&lt;font style=&quot;font-size: 15px;&quot;&gt;GITHUB&lt;/font&gt;&lt;/b&gt;" style="text;html=1;align=center;verticalAlign=middle;resizable=0;points=[];autosize=1;strokeColor=none;fillColor=none;" parent="1" vertex="1">
          <mxGeometry x="177.5" y="-150" width="80" height="30" as="geometry" />
        </mxCell>
        <mxCell id="PDKZWIRo8kdzS-4Apmol-68" value="" style="dashed=0;outlineConnect=0;html=1;align=center;labelPosition=center;verticalLabelPosition=bottom;verticalAlign=top;shape=mxgraph.weblogos.java;strokeColor=default;strokeWidth=1;" parent="1" vertex="1">
          <mxGeometry x="540" y="312" width="30" height="50" as="geometry" />
        </mxCell>
        <mxCell id="PDKZWIRo8kdzS-4Apmol-71" style="edgeStyle=orthogonalEdgeStyle;rounded=0;orthogonalLoop=1;jettySize=auto;html=1;strokeWidth=1;" parent="1" source="PDKZWIRo8kdzS-4Apmol-70" target="PDKZWIRo8kdzS-4Apmol-14" edge="1">
          <mxGeometry relative="1" as="geometry">
            <Array as="points">
              <mxPoint x="-2" y="-80" />
            </Array>
          </mxGeometry>
        </mxCell>
        <mxCell id="PDKZWIRo8kdzS-4Apmol-73" value="&lt;b&gt;&lt;font style=&quot;font-size: 13px;&quot;&gt;PUSH&lt;/font&gt;&lt;/b&gt;" style="edgeLabel;html=1;align=center;verticalAlign=middle;resizable=0;points=[];" parent="PDKZWIRo8kdzS-4Apmol-71" vertex="1" connectable="0">
          <mxGeometry x="-0.44" y="-1" relative="1" as="geometry">
            <mxPoint x="1" y="-25" as="offset" />
          </mxGeometry>
        </mxCell>
        <mxCell id="PDKZWIRo8kdzS-4Apmol-70" value="" style="sketch=0;aspect=fixed;pointerEvents=1;shadow=0;dashed=0;html=1;strokeColor=none;labelPosition=center;verticalLabelPosition=bottom;verticalAlign=top;align=center;fillColor=#00188D;shape=mxgraph.azure.user" parent="1" vertex="1">
          <mxGeometry x="-30" y="-240" width="56.4" height="60" as="geometry" />
        </mxCell>
        <mxCell id="PDKZWIRo8kdzS-4Apmol-74" value="&lt;font style=&quot;font-size: 16px;&quot;&gt;&lt;b&gt;TEST&lt;/b&gt;&lt;/font&gt;" style="text;html=1;align=center;verticalAlign=middle;resizable=0;points=[];autosize=1;strokeColor=none;fillColor=none;" parent="1" vertex="1">
          <mxGeometry x="508.25" y="158" width="60" height="30" as="geometry" />
        </mxCell>
        <mxCell id="iVJDmbqdBUfphAulUDFP-3" value="&lt;b&gt;&lt;font style=&quot;font-size: 15px;&quot;&gt;Control-Plan&lt;/font&gt;&lt;/b&gt;" style="text;html=1;align=center;verticalAlign=middle;resizable=0;points=[];autosize=1;strokeColor=none;fillColor=none;" parent="1" vertex="1">
          <mxGeometry x="480" y="400" width="110" height="30" as="geometry" />
        </mxCell>
        <mxCell id="iVJDmbqdBUfphAulUDFP-4" value="&lt;font color=&quot;#3333ff&quot; size=&quot;1&quot; face=&quot;Helvetica&quot;&gt;&lt;b style=&quot;font-size: 13px;&quot;&gt;Test-Job&lt;/b&gt;&lt;/font&gt;" style="text;html=1;align=center;verticalAlign=middle;resizable=0;points=[];autosize=1;strokeColor=none;fillColor=none;" parent="1" vertex="1">
          <mxGeometry x="360" y="100" width="80" height="30" as="geometry" />
        </mxCell>
        <mxCell id="iVJDmbqdBUfphAulUDFP-5" value="&lt;b&gt;&lt;font color=&quot;#3333ff&quot; style=&quot;font-size: 13px;&quot;&gt;Deploy-Job&lt;/font&gt;&lt;/b&gt;" style="text;html=1;align=center;verticalAlign=middle;resizable=0;points=[];autosize=1;strokeColor=none;fillColor=none;" parent="1" vertex="1">
          <mxGeometry x="370" y="362" width="90" height="30" as="geometry" />
        </mxCell>
        <mxCell id="XtlU3vXgIYlVjPlW-ONo-1" value="brower" style="whiteSpace=wrap;html=1;aspect=fixed;dashed=1;" vertex="1" parent="1">
          <mxGeometry x="660" y="-110" width="80" height="80" as="geometry" />
        </mxCell>
      </root>
    </mxGraphModel>
  </diagram>
</mxfile>
